<svg xmlns="http://www.w3.org/2000/svg" width="90.1" height="104.6" viewBox="0 0 90.1 104.6"><style type="text/css">.st0{fill:#D1D0A8;} .st1{fill:#9D987C;} .st2{fill:#918A57;} .st3{fill:#4F7234;} .st4{fill:#85B04E;} .st5{fill:#92C14C;} .st6{fill:#547937;} .st7{fill:#B2BC94;} .st8{fill:#7FAF41;} .st9{fill:#68973F;} .st10{fill:url(#SVGID_1_);} .st11{fill:none;stroke:#ADD166;stroke-width:0.3;stroke-linecap:round;stroke-miterlimit:10;} .st12{fill:#ADD166;} .st13{fill:none;stroke:#ADD166;stroke-width:0.7;stroke-linecap:round;stroke-miterlimit:10;} .st14{fill:#7F8B69;} .st15{fill:url(#SVGID_2_);} .st16{fill:url(#SVGID_3_);} .st17{fill:url(#SVGID_4_);} .st18{fill:#BBD758;} .st19{fill:#7DB642;} .st20{fill:#A0C442;} .st21{fill:#010101;} .st22{fill:url(#SVGID_5_);} .st23{fill:url(#SVGID_6_);} .st24{fill:#E3DAB7;} .st25{fill:#ECBF2B;} .st26{fill:#D4C58C;} .st27{fill:#CBCAAD;} .st28{fill:#3F4B20;} .st29{fill:#A7A382;}</style><path class="st0" d="M43.9.1c-3.5 0-6.1 1.7-8.5 4.2-3.2 3.4-3 8.1-5.4 11.9-.1.2-.1.3.1.4 2.2-3 2.9-6.4 4.4-9.4 0-.1.1-.2.1-.4v-.1c0-.1.1-.2.2-.3.1-.3.2-.6.4-.8.1-.1.1-.1.1-.2 0 0 0-.1.1-.1.3-.3.4-.5.6-.6.4-.5.8-.9 1.2-1.4l.1-.1.1-.1h.1c.5-.4 1-.7 1.5-1 .7-.5 2.2-1 3-.9 3.8 0 5.9 1.8 7.7 5.1.6 1.2 3.3 6.7 3.3 9.8.3-.1.9.7.9-.2-.3-5.8-4.2-15.7-10-15.8z"/><path class="st1" d="M49.7 6.1C47.9 2.8 45.8 1 42 1c-.8 0-2.3.5-3 .9-.5.3-1 .6-1.5 1h-.1l-.1.1-.1.1c-.5.4-.9.9-1.2 1.4l-.6.6s-1.2 2-1.3 2.1c-1.5 3.1-1.9 6.3-4.1 9.2.2.1.5.1.6-.1 1.1-1.4 1.7-2.7 2.1-4.5.9-3.6 2.4-6.4 5.2-8.8C47-4.9 52.7 16 52.7 16c0-.2.1-.2.2-.3.1-2.9-2.5-8.4-3.2-9.6z"/><path class="st2" d="M35.4 6.5zM35.4 6.5z"/><path class="st3" d="M6.7 92.6c1.6-1.2 3.2-2.5 4.9-3.5 1.4-.8 2-1.8 2-3.4V22c0-1.2-.5-2.3-.8-3.5 1 .1 2 .1 3 .4.7.1 1.3.5 2 .8-.3.2-.5.3-.8.5-.4.6-1.1 1.2-1.3 1.8-.3 1.3-.3 2.7-.3 4l.3 45.5c.3 5.7.6 11.4 1 17.1.1 4.4.3 8.7.4 13.1 0 .8-.3 1.6-.5 2.4-.5-.2-.9-.5-1.4-.7-.1-2.6-.2-5.2-.4-7.8-.1-1.7-.5-3.3-.7-5-.1-.8-.3-1.5-1.3-.7-2.1 1-4.1 1.9-6.1 2.7z"/><path class="st4" d="M14.7 95.7c-.1-1.7-.5-3.3-.7-5-.1-.8-.3-1.5-1.3-.7-2 .9-4 1.7-6 2.6-1.3.7-2.6 1.3-3.8 2.1-.6.4-.9 1.2-1.3 1.8.3.1.7.2 1 .4 1.8 1 3.6 1.9 5.4 2.9 2.4 1.2 4.8 2.5 7.2 3.7-.2-2.6-.3-5.2-.5-7.8z"/><path class="st5" d="M4.1 17.7c-.3-.1-.6-.3-.8-.4 0-1.4 1.1-.7 1.7-.8.3 0 .6 0 .9.1H8c0 .1 0 .2.1.4.3.1.6.3.9.4 2.9.4 5.7.9 8.6 1.2 1.5.2 1.2.7.3 1.3l-.1-.1c-.7-.3-1.3-.7-2-.8-1-.2-2-.2-3-.4-1.1-.1-2.3-.3-3.4-.4H7.2c-.8-.2-1.5-.3-2.2-.5h-.9z"/><path class="st6" d="M88.8 65.2c-.2-5.7-.3-11.4-.5-17.1V22c.1-.4 0-4.3 0-4.7l-.9.3c.1.7.1 5.1.1 5.2-.1 2.9 0 5.6 0 8.5v23.2c0 3.4.4 6.8.4 10.2v.4c.1 1.9.1 3.8.2 5.7 0 1.4.2 9.4.2 10.8.6-.4.7 0 .9-.3-.1-4.1-.2-11.8-.4-16.1z"/><path class="st7" d="M5.9 16.6c-.3 0-.6 0-.9-.1.3 0 .6.1.9.1z"/><path class="st8" d="M87.5 31.4v1.3l-.8-.8c.3-.1.6-.3.8-.5z"/><path class="st6" d="M90.1 92.9c-.4-3.8-.6-7.6-.9-11.4-3.1.4-6.2.9-9.3 1.3l-8.1.9c-1.5.3-3 .6-4.5.8l-16.5 2.1c-4.1.5-8.3.9-12.4 1.4-4.1.5-8.2 1.1-12.3 1.6-.7.1-1.4.1-2.1.1-.7.1-1.4.3-2.1.4h-.4c-.6.1-1.1.3-1.7.4h-2.1V93c1.3-.1 2.6-.3 3.8-.4h.4c.9-.1 1.7-.3 2.6-.4 3.2-.5 6.5-1 9.7-1.4 1-.1 20.3-2.9 25.2-3.6 5.3-.7 10.5-1.5 15.7-2.3l7.2-.9c2-.4 4-.8 5.9-1.2.2 0 .7.1.7.2.1 1.3.2 2.6 0 3.9-.1.4-.9.7-1.4 1-.5.3-1.1.4-1.5.8-.6.6-1.1 1.4-1.6 2.1.7.4 1.3.8 2 1.3.5.3.9.7 1.3 1.1-.5.2-1 .5-1.5.5-5.6.8-11.2 1.7-16.8 2.5-5.5.8-10.9 1.5-16.4 2.2-3.9.5-7.8 1.2-11.7 1.7-5.7.9-11.5 1.7-17.2 2.6-.3.1-.7.2-1 .4-1.7.2-3.4.3-5.1.5v.8l5.7-.6c14.4-2.1 28.9-4.1 43.3-6.2 7.3-1 14.5-2.1 21.8-3.1 1 0 1.4-.4 1.3-1.6z"/><path class="st9" d="M41.3 89.2c-.3.3-.6.6-.9.8.4-.3.7-.5.9-.8zM39.2 90c-.3.1-.6.3-.9.4.3-.1.6-.2.9-.4z"/><path class="st5" d="M17.4 20.3h-.5c.3-.2.5-.3.8-.5l.1.1c-.1.1-.2.3-.4.4z"/><linearGradient id="SVGID_1_" gradientUnits="userSpaceOnUse" x1="46.545" y1="16.157" x2="46.829" y2="20.203"><stop offset="0" stop-color="#BBC4A1"/><stop offset=".018" stop-color="#B5BEA0"/><stop offset=".058" stop-color="#AFB79F"/><stop offset=".134" stop-color="#ADB59F"/><stop offset=".299" stop-color="#9AA28D"/><stop offset=".603" stop-color="#747B6A"/><stop offset=".726" stop-color="#656C5C"/><stop offset=".859" stop-color="#595F52"/><stop offset="1" stop-color="#495045"/></linearGradient><path class="st10" d="M87.6 16.6c-1.5 0-10-.4-11-.6-1.2-.3-.9-.3-.2-1.6.9-1.7.5-1.9-1.9-1.8-3.5.2-6.9.5-10.4.7-2.6 0-33.8 1.8-35 1.9-6.3.3-22.8 1.3-23.7 1.4.6.9 9.1 1.5 12 1.9 1.5.2 1.2.7.3 1.3l-.4.4c.2.4.5.5.7.8 1.4.1 14.7-1.1 17.8-1.3.7 0 29.9-1.7 30-1.7v-.1c4.5-.3 8.9-.5 13.4-.8 2.3 0 6.3-.2 8.4-.5z"/><path class="st11" d="M29.2 15.2c-6.3.3-22.8 1.3-23.7 1.4M64.2 13.3c-2.6 0-33.8 1.8-35 1.9M74.6 12.7c-3.5.2-6.9.4-10.4.6"/><path class="st12" d="M76.1 14.2s.1-.2.3-.5c.1-.2.2-.3.2-.5V13l-.1-.1c-.4-.1-.9-.1-1.3-.1h-.6c-.1 0-.2-.1-.2-.1 0-.1.1-.1.1-.2 0 0 .2 0 .6-.1.4 0 .9-.1 1.4 0 .1 0 .3.1.5.3.1.2.1.4 0 .5-.1.3-.2.5-.2.7-.2.3-.3.6-.3.6-.1.2-.3.3-.5.2.1 0 0-.2.1-.5 0 .1 0 .1 0 0z"/><path class="st13" d="M78 16.2c-1.9-.2-2.4-.4-1.6-1.8M87.8 16.8c-1.5 0-8.8-.4-9.8-.6"/><path class="st8" d="M5.8 70.4c-1-.6-2-1.1-3-1.7v-3c3-.2 3-.2 3 2.8v1.9z"/><path class="st14" d="M43.9 5.3c-.1.2-.3.3-.4.5.1-.1.3-.3.4-.5z"/><linearGradient id="SVGID_2_" gradientUnits="userSpaceOnUse" x1="-22.582" y1="56.933" x2="16.654" y2="56.933"><stop offset="0" stop-color="#A5CF68"/><stop offset=".107" stop-color="#A2CB64"/><stop offset=".228" stop-color="#9AC359"/><stop offset=".354" stop-color="#8BB64A"/><stop offset=".36" stop-color="#8BB649"/><stop offset=".54" stop-color="#7FAA45"/><stop offset=".84" stop-color="#65903E"/><stop offset=".892" stop-color="#608B3D"/><stop offset=".977" stop-color="#517B38"/><stop offset="1" stop-color="#4C7637"/></linearGradient><path class="st15" d="M13.5 22.1c0-1.2-.5-2.3-.8-3.5-1.1-.1-2.3-.3-3.4-.4-.7 0-5.7-.7-6-.9-.2 5.2-.4 10.4-.6 15.5-.5 16.3-1.1 32.5-1.6 48.7-.1.8-.2 1.7-.3 2.5-.1 2.4-.3 4.8-.4 7.3-.1 1 0 2-.3 3-.3 1.3.1 2 1.5 2.3.4-.6.8-1.4 1.3-1.8 1.2-.8 2.5-1.4 3.8-2.1 1.6-1.2 3.2-2.5 4.9-3.5 1.4-.8 2-1.8 2-3.4-.1-21.3-.1-42.5-.1-63.7z"/><linearGradient id="SVGID_3_" gradientUnits="userSpaceOnUse" x1="50.191" y1="60.36" x2="54.383" y2="105.619"><stop offset="0" stop-color="#A5CF68"/><stop offset=".107" stop-color="#A2CB64"/><stop offset=".228" stop-color="#9AC359"/><stop offset=".354" stop-color="#8BB64A"/><stop offset=".36" stop-color="#8BB649"/><stop offset=".54" stop-color="#7FAA45"/><stop offset=".84" stop-color="#65903E"/><stop offset=".892" stop-color="#608B3D"/><stop offset=".977" stop-color="#517B38"/><stop offset="1" stop-color="#4C7637"/></linearGradient><path class="st16" d="M88.6 83.1c0-.1-.5-.3-.7-.2-2 .4-4 .8-5.9 1.2.1 1-.1 1.6-1.4 1.8-9.5 1.3-18.9 2.8-28.4 4.2-4.9.7-9.8 1.2-14.7 1.8-2.3.4-4.5.9-6.8 1.3-2.2.3-4.3.6-6.5.9v-1.7c-.9.1-1.7.3-2.6.4h-.4c-1.3.1-2.6.3-3.8.4v2.2c.1 1.6.3 3.1.4 4.7v3.9c1.7-.2 3.4-.3 5.1-.5.3-.1.7-.3 1-.4 5.7-.9 11.5-1.7 17.2-2.6 3.9-.6 7.8-1.2 11.7-1.7 5.5-.8 10.9-1.5 16.4-2.2 5.6-.8 11.2-1.6 16.8-2.5.5-.1 2.8-.4 3.3-.6-.4-.4-.7-5.9-.6-6.3.1-1.5 0-2.8-.1-4.1z"/><path class="st14" d="M36.7 4.5c-.2.2-.3.4-.5.5.2-.1.3-.3.5-.5z"/><linearGradient id="SVGID_4_" gradientUnits="userSpaceOnUse" x1="50.612" y1="18.198" x2="53.286" y2="91.289"><stop offset=".005" stop-color="#99CB59"/><stop offset=".143" stop-color="#96C656"/><stop offset=".297" stop-color="#8FBB4E"/><stop offset=".36" stop-color="#8BB649"/><stop offset=".533" stop-color="#7FA945"/><stop offset=".823" stop-color="#638F3E"/><stop offset=".892" stop-color="#5C883C"/><stop offset=".961" stop-color="#4F7938"/><stop offset="1" stop-color="#476F34"/></linearGradient><path class="st17" d="M42.5 20.3l-4.7.4c-2.5.2-5.1.1-7.6.3-1.4-.1-10.1.3-12.1.4-.2-.4-.5-.7-.7-1.1h-.5c-.4.6-1.1 1.2-1.3 1.8-.3 1.3-.3 2.7-.3 4l.3 45.5h.5c.3 2.7.6 5.4.8 8.1v9c.1.6.3 1.1.4 1.7h2.1c.6-.1 1.1-.3 1.7-.4h.4c.7-.1 1.7-.3 2.1-.4.7 0 1.4 0 2.1-.1 4.1-.5 8.2-1.1 12.3-1.6 4.1-.5 8.3-.9 12.4-1.4l16.5-2.1c1.5-.2 3-.6 4.5-.8l8.1-.9c3.1-.4 5.5-.8 8.6-1.2 0-1.1-.3-14.5-.5-16.3v-.4c0-3.4-.4-11.9-.4-14-.1-.4.1-3.5 0-4V22.7c0-.8.1-4.3-.1-5.1-2.3.1-4.5.1-6.8.2-2.6.2-5.2.5-7.7.7-3.3.2-6.5.3-9.8.5.4 0-14.9 1-20.3 1.3zM24.4 87c.3-.6.6-1.1 1-1.6-.4.5-.7 1-1 1.6zm44.9-3.8c.5 0 1.1.1 1.6.2-.5-.1-1.1-.2-1.6-.2z"/><path class="st18" d="M85.8 16.7c-2.1.3-4.3.4-6.5.5-5.4.4-10.8.6-16.2 1 0 .3.1.5.1.8 3.3-.2 6.5-.3 9.8-.5 2.6-.2 5.2-.5 7.7-.7 2.3-.1 4.5-.1 6.8-.2l.9-.3c0-1.1-1.7-.6-2.6-.6zM34.6 20.8c5.3-.3 23.8-1.5 29.2-1.9.4 0 .1-.6.1-.7-5.5.3-22.3 1.3-27.8 1.6-.2.1-1.3.8-1.5 1zM17.8 20.7c-.2 0-2.9.8-1.4.9 2.5-.2 18.9-.9 21.5-1 0-.1.1-.3.1-.4-.7-.1-1.3-.4-2-.4-3.2.2-15.1.8-18.2.9z"/><path class="st19" d="M82 84c-2.4.3-4.8.5-7.2.9-5.2.7-10.5 1.6-15.7 2.3-4.9.6-24.1 3.4-25.2 3.6-3.2.5-6.5 1-9.7 1.4-2.5.4-5.7.6-6.8.8-.2.7 0 .9 0 1.2 1 .1 3.7-.2 6.8-.4 2.2-.3 4.3-.5 6.5-.9 2.3-.4 4.5-.8 6.8-1.3 4.9-.6 9.8-1.1 14.7-1.8 9.5-1.3 18.9-2.9 28.4-4.2.7-.1 6.8-1 7.6-1.5.4-.3 1.1-1.2 0-1.4-.9.1-3.6.8-6.2 1.3z"/><path class="st20" d="M17.8 99.9c-.1-1.6-.8-15.4-.8-17.6 0-.3-.5-6.3-.7-14.6-.3-15-.4-37.1-.4-45.1 0-.9-.5-2-.6.6-.1 1.8 0 5.4 0 5.1-.2 0 .5 43.3.3 43.3.3 5.7.6 11.4 1 17.1.1 4.4.3 8.7.4 13.1 0 .8-.3 1.6-.5 2.4.4.1.9.2 1.3.3v-.8c.1-1.3 0-2.5 0-3.8z"/><circle class="st21" cx="66.7" cy="28.5" r="2.7"/><radialGradient id="SVGID_5_" cx="66.194" cy="28.11" r="2.68" gradientUnits="userSpaceOnUse"><stop offset="0" stop-color="#5D5D5D"/><stop offset=".311" stop-color="#5E5E5E"/><stop offset=".424" stop-color="#636362"/><stop offset=".504" stop-color="#6C6B6A"/><stop offset=".568" stop-color="#7A7876"/><stop offset=".624" stop-color="#8D8B87"/><stop offset=".673" stop-color="#A7A59F"/><stop offset=".716" stop-color="#C9C8BF"/><stop offset=".753" stop-color="#F6F9EA"/><stop offset=".798" stop-color="#F4F7E8"/><stop offset=".815" stop-color="#EEF1E0"/><stop offset=".826" stop-color="#E3E7D5"/><stop offset=".836" stop-color="#D4DBC6"/><stop offset=".844" stop-color="#C1CCB3"/><stop offset=".844" stop-color="#C1CCB2"/><stop offset=".887" stop-color="#BCC7AD"/><stop offset=".918" stop-color="#AFB9A1"/><stop offset=".945" stop-color="#9CA58F"/><stop offset=".969" stop-color="#858C78"/><stop offset=".992" stop-color="#6A705F"/><stop offset="1" stop-color="#606756"/></radialGradient><circle class="st22" cx="66.5" cy="28.3" r="2.7"/><circle class="st21" cx="66.5" cy="28.3" r="1.6"/><circle class="st21" cx="41.6" cy="30.4" r="2.7"/><radialGradient id="SVGID_6_" cx="41.111" cy="29.933" r="2.68" gradientUnits="userSpaceOnUse"><stop offset="0" stop-color="#5D5D5D"/><stop offset=".311" stop-color="#5E5E5E"/><stop offset=".424" stop-color="#636362"/><stop offset=".504" stop-color="#6C6B6A"/><stop offset=".568" stop-color="#7A7876"/><stop offset=".624" stop-color="#8D8B87"/><stop offset=".673" stop-color="#A7A59F"/><stop offset=".716" stop-color="#C9C8BF"/><stop offset=".753" stop-color="#F6F9EA"/><stop offset=".798" stop-color="#F4F7E8"/><stop offset=".815" stop-color="#EEF1E0"/><stop offset=".826" stop-color="#E3E7D5"/><stop offset=".836" stop-color="#D4DBC6"/><stop offset=".844" stop-color="#C1CCB3"/><stop offset=".844" stop-color="#C1CCB2"/><stop offset=".887" stop-color="#BCC7AD"/><stop offset=".918" stop-color="#AFB9A1"/><stop offset=".945" stop-color="#9CA58F"/><stop offset=".969" stop-color="#858C78"/><stop offset=".992" stop-color="#6A705F"/><stop offset="1" stop-color="#606756"/></radialGradient><circle class="st23" cx="41.4" cy="30.1" r="2.7"/><circle class="st21" cx="41.4" cy="30.1" r="1.6"/><path class="st21" d="M45.2 35.6c-.4.2-.8.4-1.2.5h-.2l-.1-.1c.8-4 1.5-10.1-3-8.9-5.3 1.4-1 10.1 1 12.6.1.1.5-.1.4-.1-1.9-3.4-3.8-6.6-2.9-10.6.4-1.9 3-1.8 3.9-.4.4.7.5 1.7.5 2.5.1 1.5 0 3.2-.3 4.8-.1 0-.2 0-.3.1-.5.3-.2.6.2.5-.2.9-.3 1.3-.6 2.1 0 .1.5 0 .6-.1.1-.5.2-.9.4-1.8.5.6.6 1.4 1.2 1.8h.1c.4-.6 0-1.3-.4-1.8-.1-.1-.2-.3-.3-.4.5-.2.9-.4 1.3-.6 0-.1-.2-.2-.3-.1zM36 42.8h12.4v12.8H36zM45.9 38.9h-7.3c-1.4 0-2.6 1.2-2.6 2.6v1.4h12.4v-1.4c.1-1.5-1.1-2.6-2.5-2.6zm-3.8 3.2c-.7 0-1.2-.6-1.2-1.2 0-.7.6-1.2 1.2-1.2.7 0 1.2.6 1.2 1.2s-.5 1.2-1.2 1.2zM36 57.7c0 1.4 1.2 2.6 2.6 2.6h7.3c1.4 0 2.6-1.2 2.6-2.6v-2.1H36v2.1z"/><path class="st24" d="M35.7 42.6h12.4v12.8H35.7z"/><path class="st25" d="M45.6 38.7h-7.3c-1.4 0-2.6 1.2-2.6 2.6v1.4h12.4v-1.4c0-1.5-1.1-2.6-2.5-2.6zm-3.8 3.2c-.7 0-1.2-.6-1.2-1.2 0-.7.6-1.2 1.2-1.2.7 0 1.2.6 1.2 1.2s-.6 1.2-1.2 1.2zM35.7 57.5c0 1.4 1.2 2.6 2.6 2.6h7.3c1.4 0 2.6-1.2 2.6-2.6v-2.1H35.7v2.1z"/><path class="st26" d="M44.9 35.3c-.4.2-.8.4-1.2.5h-.2l-.1-.1c.8-4 1.5-10.1-3-8.9-5.3 1.4-.9 10.4 1.1 12.9.1.1.5-.1.4-.1-1.9-3.4-3.8-6.9-3-10.9.4-1.9 3-1.8 3.9-.4.4.7.5 1.7.5 2.5.1 1.5 0 3.2-.3 4.8-.1 0-.2 0-.3.1-.5.3-.2.6.2.5-.2.9-.4 1.7-.6 2.5 0 .1.5 0 .6-.1.1-.5.3-1.2.4-2.1.5.6.6 1.4 1.2 1.8h.1c.4-.6 0-1.3-.4-1.8-.1-.1-.2-.3-.3-.4.5-.2.9-.4 1.3-.6.1-.2-.1-.3-.3-.2z"/><path class="st27" d="M67.9 27.9c-.4-.5-.8-1.4-1-2.1C65.2 19.2 64 12.3 61 6.3 59 2.2 55.1-.6 50.3.2c-4.8.7-7.9 3.5-9.6 8.1-1.1 3.1-.9 6.6-.7 9.9.2 3.7.3 6.7.4 10.1 0 .8.1 1.8-.3 2.7-.1.1.7.2 1.4.1 1.3-4.3-.1-9.5-.1-13.9 0-3.5.2-6.9 1.4-10.3.7-2 1.8-3.5 3.1-4.6.4-.4.9-.7 1.4-.9C49 .6 50.9.3 53.2.7c5.9 1 7.8 9.3 9.3 14 1.3 4 1.7 8.6 3.6 12.4.3.7.6 1.2.7 1.8.8 0 1.2-.3 1.1-1z"/><path class="st18" d="M42.4 30.2V30c0 .1-.1.3-.1.4.1-.1.1-.1.1-.2z"/><path class="st28" d="M45.9 2.3c.4-.3.9-.6 1.4-.9-.5.2-1 .5-1.4.9z"/><path class="st29" d="M66.1 27.1c-1.9-3.7-2.4-8.3-3.6-12.4C61 10 59.1 1.8 53.2.7c-2.3-.4-4.3-.2-6 .6-.5.2-.9.5-1.3.8-1.3 1.1-2.4 2.6-3.1 4.6-1.2 3.3-1.4 6.8-1.4 10.3 0 4.4 1.4 9.6.1 13.9.4-.1.7-.3.8-.6 0-.1.1-.3.1-.4.7-6.1-2.5-22.1 3.1-27.4.8-.7 1.8-1.2 2.9-1.5 1.1-.3 2.5-.3 4 0 5.8 1.1 7.7 8.5 9.1 13.3 1.1 4 1.3 8.6 3.2 12.4.3.6.7 1.2 1.1 1.8.4.2.7.3 1 .3-.1-.5-.3-1.1-.7-1.7z"/></svg>