<svg xmlns="http://www.w3.org/2000/svg" width="115.6" height="122.8" viewBox="0 0 115.6 122.8"><style type="text/css">.st0{fill:#5F491C;} .st1{fill:#88712C;} .st2{fill:#B29E3C;} .st3{fill:#3D3216;} .st4{fill:#A4872F;} .st5{fill:#A18930;} .st6{fill:#C4AE5E;} .st7{fill:#783217;} .st8{fill:#EB9139;} .st9{fill:#C37829;} .st10{fill:#705B25;} .st11{fill:#D7C67F;} .st12{fill:#5A2A0F;} .st13{fill:#977D2E;} .st14{fill:#4D4017;} .st15{fill:#433717;}</style><g id="stock-vector-illustration-of-isolated-a-backpack-on-white-background-50233393.psd_2_"><path class="st0" d="M102.7 52l1.2 3 3.6 10.3.9 2.4.9 2.7.3 1.5c0 .2 0 .5.1.7l2.6 13.2v1.5c-.2 3.4-.2 6.8-.7 10.1-.7 4.6-2.7 8.7-6.1 12-.3.3-.6.5-.9.7 2-2.9 1.8-7.3 1.6-8.3-.3-2-1-3.9-1.4-5.8-.4-1.7-1.2-3.5-1.1-5.2.2-1.9.1-3.7-.7-5.4-1.4-2.8-2.9-5.6-4.5-8.4-.6-1.1-1.4-2.3-2.4-2.9-1.9-1-3.8-1.1-5.9-1.7-.1 0-.5-.1-.7.1h-.9c-1.1.1-2.5.1-4.1.3-1.5.1-3 .4-4.5.6-.8.1-4.2.9-4.5 1-4.3 1.5-8.7 2.8-13 4.5-2.4.9-4.6 2.3-5.6 4.9l-.3.6-.5.3c-.3.3-.7.5-.9.8-1.2 2.3-1.9 4.7-1.8 7.3.1 3.6.2 7.2.4 10.7.2 3.2.7 6.4 1.1 9.6-.1 1.8-1.4 2.2-2.9 2.5-3.7.7-6.1-.8-6.7-4.5 0-.2-.2-.5-.3-.7-.3-3.9-.5-7.7-.9-11.6-.6-4.9-1.3-9.9-2.1-14.8-.3-2-.9-4.2-2.6-5.5-2.1-1.6-4.5-2.7-6.9-3.9-2.4-1.3-4.9-2.5-7.3-3.9l-6.1-3.8c1.1-4.8 2.1-9.6 3.4-14.4 1.1-4.1 2.5-8.2 3.8-12.3l.5-.8c.7-.9 1.4-1.9 2-2.8-1.1 3.5-2.1 7.1-3.3 10.5-.7 1.9-.2 3.2 1.3 4.4.7.6 1.5 1.1 2.3 1.6 4.1 2.4 8.5 3.1 13.1 3.3v.6c-1.5 0-3 .1-4.5 0s-3-.5-4.5-.8c-1.4-.3-2.8-.8-4.1-1.1l-.1.6c2.7.8 5.4 1.7 8.1 2.3 1.8.4 3.5.6 4.5 2.3 1.6 2.9 4.3 3.9 7.4 3.9.8 0 1.4.2 1.7 1 .7 1.6 1.6 3.1 3.1 4 1.8 1 2 2.5 2 4.3 0 1.3.1 2.6.3 3.8.1.8.4 1.8 1.5 1.6 1.8-.3 3.6-.9 5.4-1.3 1-.2 1.4-.8 1.3-1.9l-.1-4.1c-.1-1.3.3-2.4 1.3-3.2 1.2-.9 2.1-2.1 2-3.8 0-.3.5-.9.9-.9 4.8-.7 9.4-1.8 13.8-3.8 1.3-.6 2.2-.1 3.1.9.6.6 1.3 1.4 2.1 1.5 1.4.3 1.9 1.3 2.3 2.4l1.4 4c.2.4.8.8 1.1.8 1.8-.1 3.5-.3 5.2-.6 1.9-.3 1.9-.5 1.4-2.3-.7-2.2-1.2-4.4-1.8-6.6-.1-.3.1-.7.3-1 .5-.8 1.2-1.5 1.6-2.4.5-1.2 1.1-2.5.6-4-.3-.8-.1-1.6.9-1.9.9-.3 1.3.1 1.4 1 .4 0 .7.2.9.3z"/><path class="st1" d="M42.4 57v-.6c-.3-2.2-.4-4.4-.8-6.6-.4-2.6-.9-5.2-1.6-7.8-.7-2.6-1.5-5.3-2.5-7.8-.9-2.1-2.5-3.1-4.9-1.7l-2.1 1.3c-.4-.1-1.4.3-.9-.8.4-.8 1-1.4 1.5-2.2.3-.1.6-.1.8-.3 1.9-1 3.8-.9 5.5.5 3.4 2.8 5 6.5 5.8 10.7.7 3.7.8 7.6 1.3 11.4.5 3.4 1.4 5.2 5.7 5 1.2-.1 1.9-.5 2-1.7.1-2.2.1-4.4.4-6.6.1-1 .7-2 1.3-2.7 2-2 7.9-1.5 9.5 2.4l2.1 5.1c1.1 2.8 3 3.8 5.9 3.3l1-.1c3.3-.2 6.5-1 9.5-2.4 1.3-.7 2.1-2.2 1.8-3.2-.5-2-1.3-3.9-1.5-5.9-.4-2.9.3-5.8 3.7-7.2 2.6-1 4.7-1 5.9 2 .1.3.2.5.4.8 1 1.7 1.9 3.5 3 5.2.7 1 2.1 1 2.9.2 1.4-1.5 2.1-3.2 1.7-5.2-.8-4.6-2.1-9-4.5-13.1-2.3-3.9-4.6-7.6-8.6-9.9-2.4-1.4-4-1-4.9 1.7-.2.6-.8 1.4-1.4 1.6-3.2.8-6.5 1.5-9.7 2.1-1.8.3-3.3-.6-4.1-2.2-.7-1.3-.6-2.5-.2-3.8.3-.8.3-1.8-.9-1.9-2.7-.3-5.4.3-7.9 1.4-.7.3-1.4 1-.4 1.9 1.4 1.2 1.6 2.7 1.6 4.4 0 1.3-.6 2.2-1.7 2.7-.8.4-1.6.8-2.4 1.1-3.4 1.4-6.7 2.4-10.2.3-2-1.1-2-2.4-1-4.1.2-.4.6-.8 1-1.1l3.4-2.6c.2-.2.3-.6.5-.9-.3-.1-.6-.3-.9-.2l-4.6 1.4-2.6.6 8.1-3.6 1.9-.7 1.5 1.5.6.6c.2.1.4.2.5.4v1.1c-1.8.8-3.6 1.6-5.3 2.6-1.3.7-1.3 1.4-.7 2.7.6 1.2 1.5 1.6 2.8 1.3.4-.1.9-.1 1.3-.3 1.8-.6 3.9-.5 5.4-2 1.1-.7 1.4-1.6.7-2.8-1.1-1.9-2-3.9-3-5.8l7.1-.9.3-.1c.1 0 .2 0 .4-.1l.3-.1c2.2-.2 4.4-.4 6.5-.6l-.8 4c-.5 2 .2 3.1 2.3 3.4.7.2 1.4.5 2.1.5 1.9-.3 3.9-.7 5.8-1.1 1.1-.3 1.5-1.2 1.3-2.9-.1-1.1-.7-1.4-1.7-1.5l-6-.2c.1-1-.2-2.3 1.5-2.2l10.3 1.5 4.2 1.5c.2.3.4.7.7.9 6.2 4.3 9.5 10.5 11.9 17.3.9 2.6 1.4 5.3 2.2 8 .4 1.4 0 2.7-.4 4l-5.1 3.3c-.5.4-.9.8-1.4 1.1-.3.2-.6.4-1 .6l-.6-1.3c-1.2-3-2.3-6.1-3.6-9.1-.6-1.4-1.6-1.7-2.8-1.4-1.6.4-2.8 1.7-2.6 2.9.3 1.5.9 2.9 1.4 4.3.9 2.2 2.1 4.2 2.1 6.7l-2.1 1.2-1.8.6-18.7 5.3-1.7.6-1.4-.3c-.1-.4-.3-.7-.3-1.1-.1-3.6-1-7.1-2.1-10.5-.5-1.4-1.8-1.9-3.4-1.4-1.7.5-2.3 1.5-2 3l1.8 10.2-2.2-.3h-1.9c-2.3-.3-4.6-.3-6.7-1-1.9-.5-3.5-1.9-3.6-4.3z"/><path class="st2" d="M16.1 113.8c-3.6-1.6-6.2-4.2-8-7.6.4.2 1.1.6 1.1.6.6-1 1.3-.3 1.9-.1l3.3.9c.8.2 1.6-.1 1.7-1 .4-2.7 2.4-4.2 4-6 1-1 2.1-2.1 3.4-2.6 1.5-.7 3.1-1.1 4.8-1.3 4.1-.3 8.3-.9 12.4.6.2.6.6 1.2.6 1.8.1 2.6.4 5.5 0 8.1-.3 2.2-1.2 4.2-2.9 5.8-3.8 3.6-8.4 3.6-13.1 3.1-2-.2-4-.9-6.2-1.4.2.3.4.5.5.8l-2.1-.9c-.6-.3-1.1-.6-1.4-.8z"/><path class="st3" d="M42.4 57c.1 2.3 1.8 3.7 3.6 4.3 2.1.7 4.5.7 6.7 1 .1 3.3 1.3 5.9 4.8 6.8v7.1c0 .6.1 1.3 1 1.1 1.3-.2 2.6-.4 3.9-.5.6 0 .8-.2.8-.9l.1-7.5c2-.9 3.4-2 2.8-4.5l-.2-2 18.7-5.3.9 1.5c1.2 1.9 2.6 3.3 5.1 2.7.6 2.3 1.2 4.5 1.9 6.7.1.2.6.4.9.4 1-.2 1.9-.5 2.8-.8 1.7-.1 1.7-.1 1.2-1.7-.1-.4-.3-.8-.4-1.3l-.9-4.5-.2-1.7 1-.6c1.8-1.3 2.1-2.6 1.1-4.6-.4-.7-.9-1.3-1.3-1.9l5.1-3.3.9 4.2c-.2-.1-.5-.3-.5-.4-.1-.9-.5-1.3-1.4-1-1 .3-1.2 1.1-.9 1.9.5 1.5 0 2.7-.6 4-.4.9-1.1 1.6-1.6 2.4-.2.3-.4.7-.3 1l1.8 6.6c.5 1.8.5 2-1.4 2.3-1.7.3-3.5.5-5.2.6-.4 0-1-.4-1.1-.8l-1.4-4c-.4-1.1-.8-2.1-2.3-2.4-.8-.2-1.5-.9-2.1-1.5-.9-1-1.8-1.5-3.1-.9-4.4 2-9.1 3.1-13.8 3.8-.3.1-.9.6-.9.9.1 1.7-.8 2.8-2 3.8-1.1.8-1.4 1.9-1.3 3.2.1 1.4-.1 2.8.1 4.1.1 1.1-.3 1.6-1.3 1.9-1.8.4-3.6 1-5.4 1.3-1.1.2-1.4-.8-1.5-1.6-.4-.9-.5-2.2-.5-3.4.1-1.8-.2-3.4-2-4.3-1.6-.9-2.5-2.4-3.1-4-.3-.8-.9-1-1.7-1-3.1 0-5.8-1-7.4-3.9-1-1.7-2.8-1.9-4.5-2.3-2.7-.6-5.4-1.5-8.1-2.3l.1-.6c1.4.4 2.7.8 4.1 1.1 1.5.3 3 .7 4.5.8 1.4.2 3 0 4.5 0z"/><path class="st4" d="M40.6 97.3c-4-1.6-8.2-1-12.4-.6-1.6.1-3.3.6-4.8 1.3-1.3.6-2.5 1.6-3.4 2.6-1.6 1.8-3.7 3.3-4 6-.1.9-.8 1.1-1.6 1.1-1 0-1.7 0-2.8-.2-.7-.1-1.4-.2-2.6-.6 0 0-.7-.3-1-.6-.1-.2-.2-.4-.3-.5-1.1-2.3-.9-4.7-.8-7.2.2-1.4.1-2.6.2-3.8l.3-1.3c.1-.2.2-.7.4-.9l2.6 1.8c-.1.5-.1 1-.2 1.4-.6 2-1.2 4-1.9 6-.3.8-.1 1.3.7 1.6 1.2.5 2.4 1 3.6 1.4 1.6.5 2.1.3 2.6-1.3l1.8-4.9c2.2.8 3.7-.1 4.6-2.1.1-.2.3-.3.3-.5.5-1 1.3-1.4 2.4-1 1.1.4 2.3.4 3.4-.2.4-.2 1 0 1.5.1.6.1 1.1.3 1.7.3 2.8.2 5.3-1.1 7.9-2.1.2-.1.2-.6.3-.8.8-.7 1.2 0 1.4.6.3 1.1.5 2.2.6 3.3.1.3-.3.7-.5 1.1z"/><path class="st5" d="M41.2 90.2c.6 4.4 1.3 8.8 1.8 13.3.2 2 0 4.1-.3 6.1-.2 1-.8 2.2-1.6 2.9-2.1 2.1-2.8 4.3-7.9 5.2-1.1.2-2.3.1-3.5 0-3.5-.2-7-.6-10.2-2.3-.3-.1-5.2-2.3-5.5-2.6 2.1.5 9.1 3 11.1 3.2 4.7.5 9.4.5 13.1-3.1 1.7-1.6 2.6-3.8 2.8-6 .2-2.5.2-4.1-.2-6.7-.1-.6-.1-2.4-.3-3 .2-.4.6-.8.6-1.2-.1-1.1-.3-2.2-.6-3.3-.2-.5-.6-1.3-1.4-.6h-.6c.9-.5 1.8-1.2 2.7-1.9z"/><path class="st6" d="M51.6 18.8l-1.5-1.5c-.8-1.4-1.7-2.7-3.3-3.2 1-.2.2-.7.1-.9-.5-1-1.3-2-1.7-3.1-1.1-2.6-.4-4.3 2-5.7 3.1-1.7 6.5-2.5 10-3 3.2-.5 6.4-1 9.6-1.4 1.7-.2 3.4 0 5 .2 1 .1 1.8.8 1.9 2l-.3 1.1-2.1 10.5-1.2 3.9-.3-.1c0-.2 0-.5.1-.7.9-3.6 1.9-7.2 2.7-10.8.5-2 .3-4.2-2.2-4.4-.5-.1-.9-.3-1.4-.3-3.3.2-6.7.1-10 .6s-6.5 1.3-9.7 2.4c-2.9 1-5 3.5-2.1 6.9 1.8 2.1 3.4 4.4 5 6.7.3.4 1.2.9.5 1.7-.2-.1-.4-.2-.5-.4-.2-.1-.4-.3-.6-.5z"/><path class="st7" d="M87.4 17.7l-4.2-1.5c-.5-2-.9-4-1.6-5.9-.3-.7-1.1-1.3-1.7-1.9-.2-.1-.4-.2-.7-.4 1.9-1.3 4-1.7 6.2-1.9.4.7 1.1 1.5 1.2 2.2.4 3.1.6 6.2.8 9.4z"/><path class="st5" d="M112.3 85.8l-2.6-13.2-.1-.7h.3c2.1.9 2.3.8 3.5-.9.6 2.5 1.4 5 1.9 7.6.5 2.2.8 4.5-.4 6.6-.9.3-1.6 1.3-2.6.6z"/><path class="st8" d="M82 3.7c.6.3 1.2.6 1.8.8-.4.2-.8.5-1.3.6-2.5.3-4.5 1.5-6.2 3.3-.9 1-1.9 2-2.9 2.9.2-2.5.6-4.8 1-7.2.2-.9.7-1.4 1.6-1.3l5.1.6.9.3z"/><path class="st9" d="M81.2 3.4l-5.1-.6c-.9-.1-1.5.4-1.6 1.3-.4 2.3-.8 4.7-1 7.2l2.9-2.9c1.7-1.8 3.7-3 6.2-3.3.4 0 .9-.4 1.3-.6l1.7 1.5c-2.2.2-4.3.6-6.2 1.9.2.1.5.2.7.4-1.4-.1-2.5.5-3.4 1.4l-3.4 4h-1.8l2.1-10.5.3-1.1c1.1.1 2.2.1 3.3.3 1.2.4 2.6.7 4 1z"/><path class="st10" d="M113.3 71c-1.2 1.7-1.3 1.8-3.5.9l-.6-1.5-.9-2.7-.6-2.4.2-.6 2.1-2.1c.5.8 1.2 1.5 1.6 2.3.7 1.7 1.2 3.4 1.8 5.1-.1.4-.1.7-.1 1z"/><path class="st11" d="M105.4 55.6c2 .8 4.1 1.6 6.1 2.5.6.3 1.1 1.1 1.3 1.7.4 1.8.6 3.7.9 5.5-.8-.2-.9-.9-1.1-1.5-.8-2.6-1.7-3.1-4.2-2.5-.3.1-.8-.1-.8-.3-.8-1.7-1.5-3.6-2.2-5.4z"/><path class="st6" d="M105.4 55.6c.7 1.8 1.3 3.7 2.1 5.5.1.2.6.3.8.3 2.5-.6 3.4-.1 4.2 2.5.2.7.4 1.3 1.1 1.5.1 1.1.3 2.1.2 3.2 0 .5-.4 1-.6 1.6-.6-1.7-1.1-3.4-1.8-5.1-.4-.8-1-1.6-1.6-2.3l-2.1 2.1c-.1.1-.1.4-.2.6h-.2l-3.6-10.3c.7 0 1.2.2 1.7.4z"/><path class="st8" d="M44.4 13.2c-.4-.4-.9-.7-1.3-1-.5-.2-1-.5-1.6-.7-1.7-.7-5.7-1.9-5.9-2-4.1-.9-7.8-.4-11 2.5l.1.3c-.3 1.9.2 2.7 1.8 3.2 2 .6 3.9 1.2 5.9 1.9 3.2 1.1 6.4 1.6 9.8.7 3.3-.9 4.4-2.3 2.2-4.9z"/><path class="st2" d="M112.3 85.8c1.1.7 1.7-.3 2.6-.6-.4 1.3-1.5 1.7-2.5 2.1-.1-.5-.1-1-.1-1.5z"/><path class="st9" d="M46.8 14.1c-.2-.1-3.1-1.5-3.8-1.9.4.3 1 .6 1.3 1 2.2 2.6 1.1 3.9-2.3 4.9-3 .9-6 .5-9-.4-2.1-.7-4.2-1.5-6.4-2-.8-.2-1.3-.5-1.5-1-1.1-.2 2.2-6.1-2.7-.4-1.6 1.7-3.3 3.3-4.8 5.1-10.3 12.4-15.3 25.7-17.1 41.6-.1 1.1-.4 5.4-.5 6.7-.1 3 .4 9 .7 12 .2 1.7.8 4.7 1.5 6.7 1 3 2.8 6 4.9 8.4.1-.1.4-1.2.4-1.4 0-.3-.5-.7-.7-.9-2.6-3.7-4.2-7.8-4.9-12.2v-3.0999999999999996c-.1-3.3-.3-6.6-.3-9.9.1-6.5 1.1-12.9 2.9-19.1.9-3.1 2.1-5.9 3.1-8.9.2-.6 1-2 1.1-2.1.8-1.8 1.4-3.7 2.3-5.3 2-3.4 4.1-6.8 6.4-10.1 1.1-1.5 2.7-2.8 4.2-3.9 1.2-1 2.8-.8 4.3-.5 2.9.7 5.9 1.5 8.8 2.3.1 0 5.8 1.5 6.4 1.5l7.3-3.2c.5-.2 1.7-.2 1.9-.7.1-.5-.9-1.4-1.2-1.8-.8-.6-1.4-1.1-2.3-1.4z"/><path class="st2" d="M43 12.2c-.5-.2-1-.5-1.6-.7.6.2 1.1.4 1.6.7z"/><path class="st9" d="M82 3.7l-.9-.3.9.3z"/><path class="st2" d="M7.7 105.6c.1.2.2.4.3.5-.1-.1-.2-.3-.3-.5z"/><path class="st7" d="M16.5 37.9c-1.4 4-2.3 8.1-3.4 12.2l-.3 1-.4.7c-.7 3.6-1.5 7.3-2 10.9-.6 4-.9 8.1-2.5 11.8-.7 1.6-1.6 3-2.5 4.4-.7.9-1.8.8-2.5-.1-.4-.5-.7-1.2-1-1.7-.1-3.3-.3-6.6-.3-9.9.1-6.5 1.1-12.9 2.9-19.1.9-3.1 2.1-6 3.1-9 .2-.6.9-1.9.9-2 0 0 1-1.6 1.3-2.3 1.6-3.7 4.1-6.5 6.6-9.6.9-1.2 2.1-2.2 3.3-3 1.4-1 3.4-.8 4.6.1 1.1.8.5 1.9.3 2.8-.1.1-1.7 1.9-2.5 2.9-.9 1.3-4.8 7.4-5.6 9.9z"/><path class="st12" d="M1.8 77.2c.3.6.6 1.2 1 1.7.7.9 1.9 1 2.5.1 1-1.4 1.9-2.9 2.5-4.4 1.6-3.8 1.9-7.8 2.5-11.8.5-3.7 1.3-7.3 2-10.9 0-.3.3-.5.4-.7-.4 4.6-.9 9.3-1.1 13.9-.1 2.9.1 5.9.2 8.8-.8 2.2-1.4 4.5-2.6 6.5-.8 1.4-.7 2.3-.1 3.5l.7 1.5-.4.7c-.3 1.3-.7 2.6-1 3.8l-.8 2.7-.3.7c-3-3.9-5.2-8.4-5.6-13.2l.1-2.9zM24.6 25.1c.1-1 .7-2-.3-2.8-1.2-.9-3.2-1.1-4.6-.1-1.2.9-2.4 1.9-3.3 3-2.4 3.1-5 6-6.6 9.6-.3.7-.7 1.7-1.2 2.3.8-1.8 1.4-3.7 2.3-5.3 2-3.4 4.1-6.8 6.4-10.1 1.1-1.5 2.7-2.8 4.2-3.9 1.2-1 2.8-.8 4.3-.5 3 .8 6 1.5 8.9 2.3-3.5.4-6.5 2-8.9 4.5-.4.4-.8.7-1.2 1z"/><path class="st5" d="M26.5 40.2c.1-.9.1-1.7.3-2.5 2.1-6.7 6.1-11.9 12.1-15.6.3-.2 1-.6 1.1-.6l2.6-.6c-.1.4.1 1-.2 1.2-1.5 1.5-3.1 2.9-4.7 4.4-1.3 1.2-2.8 2.2-4.5 2.3-1.5.1-2 .8-2.2 2.1-.5.7-1.1 1.4-1.5 2.2-.6 1.1.4.7.9.8-.5.9-1 1.7-1.4 2.6-.7.9-1.4 1.9-2 2.8-.2.3-.4.6-.5.9z"/><path class="st11" d="M56.5 84.3l.3-.6 1.2-.9c.4-.3.8-.8 1.2-1 4.4-3.2 9.6-4.4 14.8-5.7 5-1.3 10.2-2.1 15.4-1.9 2.3.1 4.1.8 5.7 2.3 2.3 2.1 3.5 4.8 4.5 7.6.7 2.1.5 4.2-1.3 5.3-2.2 1.4-4.7 2.4-7.1 3.5-.7.3-1.2.1-1.4-.8-.3-1.2-.6-2.5-1-3.7-1.2-3.5-3-5.9-6.7-5.5-2.1.2-4.4 1.9-4.3 4.4.1 2.2.9 4.2 1.7 6.2.8 2.2.4 3.3-1.6 4.5l-1 .6c-2.7 1.2-5.9 1.7-7.9-1.8l-2.2-3.8-3-5.1v-.1h-.1l.1.1c.4 1.2.9 2.4 1.3 3.5.2.5.3 1 .5 1.4-1.1-1.7-1.9-3.6-2.9-5.3-1.7-3.3-3.5-3.6-6.1-1.3-.1-.6-.1-1.3-.1-1.9zm6.7 2.6v.1h.2l-.2-.1z"/><path class="st3" d="M29 36.6c.5-.9 1-1.7 1.4-2.6l2.1-1.3c2.4-1.4 4-.4 4.9 1.7 1.1 2.5 1.8 5.2 2.5 7.8.7 2.6 1.2 5.2 1.6 7.8.4 2.2.5 4.4.8 6.6-4.6-.3-9.1-.9-13.1-3.3-.8-.5-1.6-1-2.3-1.6-1.4-1.2-1.9-2.5-1.3-4.4 1.3-3.7 2.3-7.2 3.4-10.7z"/><path class="st6" d="M102.9 88.1c-1.1-2.6-2-5.3-3.2-7.7-2.2-4.2-5.1-7.5-10.2-7.9h-.9l-4.1.2c-1.5.1-3 .4-4.5.6-.5.1-1 .2-1.4.3-.2 0-2.8.6-3.1.7-4.3 1.3-8.7 2.8-13 4.5-2.4.9-5.3 3.1-6.3 5.7l-.1.2c-.9 2.5-1.7 5.7-1.4 8.4l1-1.4c-.1-1.6.8-2.9 1.7-4.1.9-1.1 1.8-1.1 2.8-.2.6.5 1.2 1.1 1.5 1.8l5 11.1c.1.2 0 .4 0 .6v.3c.8 1.5 2 1.4 3.4 1 2.4-.7 4.9-1.1 7.2-1.9 1.3-.5 2.1-.4 2.9.8.5-.5.9-.5 1.4.1.2.2.5.3.8.4l-.1-.4c-1.4-2.2-1.4-2.2 1.2-2.8l-1.7-5.7c-.5-1.6-1.2-3.2-1.8-4.8-.4-1.2.2-2.4 1.7-3.1 1.1-.5 2.6-.3 3.1.7 1 1.9 1.9 3.9 2.7 5.9.5 1.3.9 2.6 1.3 3.9l.3.6.6.3c.2.1.5 0 .7.2.3.3.5.7.8 1.1.1-.3.2-.7.4-1l.5-.8c.2-.3.3-.9.6-1l8.5-4.1 1.1-.7c.7-.7.9-1.1.6-1.8zm-4.5 1.2c-2.2 1.4-4.7 2.4-7.1 3.5-.7.3-1.2.1-1.4-.8-.3-1.2-.6-2.5-1-3.7-1.2-3.5-3-5.9-6.7-5.5-2.1.2-4.4 1.9-4.3 4.4.1 2.2.9 4.2 1.7 6.2.8 2.2.4 3.3-1.6 4.5l-1 .6c-2.7 1.2-5.9 1.7-7.9-1.8l-2.2-3.8-3-5.1c.4 1.2.9 2.4 1.3 3.5.2.5.3 1 .5 1.4-1.1-1.7-1.9-3.6-2.9-5.3-1.7-3.3-3.5-3.6-6.1-1.3 0-.6.2-1.5.5-2.1.3-.6.8-1.1 1-1.3 2.9-3.2 10.9-5.4 16-6.8 5-1.3 10.2-2.1 15.4-1.9 2.3.1 4.1.8 5.7 2.3 2.3 2.1 3.5 4.8 4.5 7.6.7 2.2.4 4.3-1.4 5.4z"/><path class="st1" d="M108.4 67.7l.9 2.7-.9-2.7zM107.5 65.3h.2l.6 2.4c-.2-.8-.5-1.6-.8-2.4zM109.3 70.4l.6 1.5h-.3l-.3-1.5z"/><path class="st13" d="M31.1 31c.2-1.3.7-2 2.2-2.1 1.7-.1 3.2-1.1 4.5-2.3 1.5-1.5 3.1-2.9 4.7-4.4.2-.2.1-.8.2-1.2 1.5-.5 3.1-1 4.6-1.4.3-.1.6.1.9.2-.2.3-.2.7-.5.9l-3.4 2.6c-.4.3-.8.7-1 1.1-.9 1.7-.9 3 1 4.1 3.5 2 6.9 1 10.2-.3.8-.3 1.6-.7 2.4-1.1 1.1-.6 1.7-1.5 1.7-2.7 0-1.7-.2-3.2-1.6-4.4-1-.8-.3-1.5.4-1.9 2.5-1.1 5.1-1.7 7.9-1.4 1.2.1 1.2 1.1.9 1.9-.5 1.3-.5 2.5.2 3.8.9 1.6 2.3 2.5 4.1 2.2 3.3-.6 6.5-1.3 9.7-2.1.6-.1 1.1-1 1.4-1.6.9-2.6 2.5-3.1 4.9-1.7 4 2.4 6.3 6.1 8.6 9.9 2.4 4.1 3.7 8.5 4.5 13.1.4 2-.3 3.8-1.7 5.2-.8.8-2.2.8-2.9-.2-1.1-1.7-2-3.4-3-5.2l-.4-.8c-1.2-3-3.3-3-5.9-2-3.5 1.3-4.1 4.2-3.7 7.2.2 2 1 3.9 1.5 5.9.3 1-.5 2.6-1.8 3.2-3 1.5-6.2 2.2-9.5 2.4-.3 0-.7 0-1 .1-2.9.5-4.8-.5-5.9-3.3l-2.1-5.1c-1.7-3.9-7.5-4.4-9.5-2.4-.7.7-1.2 1.8-1.3 2.7-.3 2.2-.2 4.4-.4 6.6-.1 1.2-.8 1.6-2 1.7-4.3.3-5.2-1.6-5.7-5-.5-3.8-.6-7.6-1.3-11.4-.7-4.1-2.4-7.9-5.8-10.7-1.7-1.4-3.6-1.6-5.5-.5 0 .2-.3.3-.6.4zm21.2 4.3c2.8-.4 6.3-.7 9.8-1.4 2.9-.5 5.8-1.2 8.6-2.1 2.2-.7 4.3-1.8 6.4-2.9.5-.2.7-.9 1-1.3-.6-.3-1.1-.9-1.7-1-1.5-.1-3.1-.2-4.6 0-3.7.6-7.4 1.4-11.1 2.2-4.8 1-9.6 2.1-14.3 3.1-.8.2-1.6.5-1.3 1.4.2.6.9 1.4 1.5 1.5 1.6.3 3.3.3 5.7.5zm46.4 7.1c-.2-1.5-.1-3-.6-4.3-1.2-3.1-2.5-6.1-4-9-1.4-2.8-3.1-5.3-5.5-7.4-1.2-1.1-3.2-1.4-4.5-.7-1.2.6-1.2 1.7-1.1 2.8 0 .4.2.9.4 1.2 2 2.6 4.2 5 6.1 7.7 1.9 2.7 3.5 5.6 5.2 8.4.1.1.1.3.1.4.5 1.2 1 2.4 1.6 3.5.2.3.7.6 1 .6.3-.1.7-.5.8-.9.3-.7.4-1.6.5-2.3z"/><path class="st9" d="M56.8 62.7l-1.8-10.2c-.3-1.5.3-2.5 2-3 1.6-.5 2.9 0 3.4 1.4 1.1 3.4 1.8 5.8 2.5 11.5.1 1.3.2 2.6.2 3.8-.9.4-1.5.7-2.3.5-.1-.5-.5-1.8-.6-2.2-.3.2-.6.4-.9.5-.2.3.6 1.7.3 1.9l-1.7.3h-.4c-.1-.1.1-.6.1-.7-.3-1.2-.6-2.5-.8-3.8zM88.5 54.9c-.9-2.3-3.2-9.5-3.5-10.9-.2-1.2 1-2.5 2.4-2.9 1.3-.4 2.2 0 2.8 1.4 1.3 3 2.4 6.1 3.6 9.1l.6 1.3.1.6c.1.5.2 1 .4 1.5v.5l-.1 1.3-1.2.6c-.2-.4-.4-.9-.7-1.3-.2-.2-.7-.5-.8-.4-.3.2-.6.6-.5.9.1.6.5 1.1.7 1.7l-2.3.6c-.5-1.3-.8-2.5-1.5-4z"/><path class="st5" d="M52.1 13.2l1.8 3.2c1 1.9 1.9 3.9 3 5.8.7 1.2.5 2.1-.7 2.8l-3.6-4.2v-1.1c.8-.8-.2-1.3-.5-1.7-1.6-2.3-3.1-4.6-5-6.7-3-3.4-.8-5.9 2.1-6.9 3.3-1.1 6.5-1.9 9.8-2.4 3.3-.5 6.7-.5 10.1-.7.5 0 .9.2 1.4.3l-2.4 1.2h-.6c-.5-.1-.9-.3-1.4-.3-1.7.1-3.4.1-5.1.3-3.3.3-6.4.9-9.5 2.1l-2.1 1c-1.3.6-1.5 1.8-1 2.9.8 1.8 1.9 3.5 3.7 4.4z"/><path class="st4" d="M73.2 13.8l-.3.9c-1.7-.1-1.4 1.2-1.5 2.2l-1.5 5.2c-2.1-.4-2.7-1.4-2.3-3.4l.8-4 .6-2.4 1.5-5.9c.3-1.9-.8-2.9-2.4-3.5l2.4-1.2c2.5.3 2.7 2.5 2.2 4.4-.8 3.6-1.8 7.2-2.7 10.8-.1.2-.1.5-.1.7l.3.1 1.2-3.9h1.8z"/><path class="st11" d="M69.9 22.1l1.5-5.2 6 .2c1 0 1.6.4 1.7 1.5.1 1.7-.2 2.7-1.3 2.9-1.9.4-3.8.9-5.8 1.1-.7.1-1.4-.3-2.1-.5zM52.7 20.8l3.6 4.2c-1.5 1.4-3.6 1.4-5.4 2l-1.3.3c-1.3.4-2.2-.1-2.8-1.3-.7-1.3-.6-2 .7-2.7 1.6-.9 3.4-1.6 5.2-2.5z"/><path class="st9" d="M69 12.3l-.6 2.4c-2.2.2-4.4.4-6.5.6.6-1.2 1.2-2.4 1.8-3.5.3.7.5 1.5 1.5 1.5 1-.1 2.1-.3 2.4-1.4.5-1.7.8-3.4 1.1-5.1h.6c-.1 1-.2 2.2-.3 3.3v2.2z"/><path class="st11" d="M96.7 51.2l1.3 1.9c1.1 2 .8 3.3-1.1 4.6-.3.2-.6.4-1 .6l-.4.2c-.9-.3-1-.7-.2-1.4.4-.3.6-.8.9-1.2.8-1.5-.2-2.5-.9-3.6.5-.4 1-.8 1.4-1.1z"/><path class="st14" d="M88.5 54.9c.6 1.5 1.2 2.8 1.5 3.9-.1.1-.2.2-.3.2h-.6l-2-1.5c-.2-.5-.4-.9-.7-1.4.8-.3 1.5-.8 2.1-1.2zM57.5 66.8c-1.2.1-1.7-.6-2-1.7-.3-.9-.5-1.8-.8-2.8l2.2.3c.2 1.3.4 2.6.7 3.9-.1.1-.2.2-.1.3zM64.2 62.7l.3 2c.1 1-.2 1.8-1.5 1.5-.1-1.3-.2-2.6-.2-3.8.5.1 1 .2 1.4.3z"/><path class="st12" d="M95.4 52.3c.7 1.1 1.7 2.1.9 3.6l-.6.3-.8-.7v-.5c-.1-.5-.2-1-.4-1.5l-.1-.6c.4-.2.7-.4 1-.6z"/><path class="st6" d="M86.5 56.2c.2.5.4.9.7 1.4-.7 0-1.5-.5-1.6.8l-.9-1.5c.6-.3 1.2-.5 1.8-.7z"/><path class="st5" d="M51.6 18.8l.6.6-.6-.6z"/><path class="st9" d="M61 15.5l.3-.1c-.2 0-.2.1-.3.1zM61.6 15.3l.3-.1c-.1.1-.2.1-.3.1z"/><path class="st5" d="M16 113.3l-.3-.3.3.3z"/><path class="st9" d="M57.5 69.2c.8 0 1.9-.1 2.4.2.1.1.7.6.7.5.5-1.5 1.7-1.3 2.7-1.3l-.2 7.5c0 .6-.1.8-.8.9-1.3.1-2.6.3-3.9.5-.9.1-1-.6-1-1.1.1-2.5.1-4.9.1-7.2z"/><path class="st11" d="M92.1 60.3c-.5.3-1 .5-1.4.8-2.5.6-4-.8-5.1-2.7.1-1.3.9-.8 1.6-.8.2 1.3.9 1.8 2 1.5h.6c.4.1.8.3 1.2.2.9-.4 1.2 0 1.1 1z"/><path class="st9" d="M97.5 65.7c-.1-.4-.3-.8-.4-1.3l-.9-4.5c-.4 0-.9 0-1.3.1l-.6 1c-.3-.2-.6-.4-.8-.6-.2-.1-.3-.3-.5-.5l-.9.3c-.5.3-1 .5-1.4.8.6 2.3 1.2 4.5 1.9 6.7.1.2.6.4.9.4 1-.2 1.9-.5 2.8-.8 1.6 0 1.6 0 1.2-1.6z"/><path class="st13" d="M96.2 60c-.4 0-.9 0-1.3.1l-.4-.9c.4-.2.7-.4 1.1-.7l.4-.2.2 1.7z"/><path class="st5" d="M54.7 92.6l.9-.9c0 .7 0 1.4-.1 2-.3 2-.5 3.9 1.3 5.3l-1 1.2c-.7 1-.4 2.3.7 3-.1.5-.3.9-.3 1.4-.1 3.4 1.5 6 4.1 8 3.1 2.4 6.7 3.7 10.5 4.4 2.8.5 5.7.9 8.6-.2.8-.3 1.5-.8 2.3-1.2 2.6.8 4.5-.7 6.5-2.1 2-.8 4-1.6 5.9-2.4 1.1-.1 2-.4 2.1-1.8 1.3.4 2.5.2 3.6-.7.2-.1.5-.1.7-.1-1.6 1.2-3 2.7-4.7 3.6-6.2 3.3-12.8 5.6-19.8 6.6-3.6.5-7-.3-10.2-1.8-2.3-1.1-4.5-2.2-6.7-3.4-2.2-1.2-3.2-3.3-3.7-5.6-1-4.9-1.1-9.9-.9-14.8l.2-.5z"/><path class="st2" d="M100.5 108.6c-.2 0-.5 0-.7.1-1.1.9-2.2 1.1-3.6.7-1.8-1.9-1.9-2.8-.4-5 .2-.4.6-.7.7-1.1.5-2 .9-4 1.2-6 .3-1.6.5-3 3-3 .5.5 1 1.1 1.4 1.6.3.4.6.9.9 1.4l.7 4c.2 3-.7 5.5-3.2 7.3z"/><path class="st13" d="M92 95.3c.2-.3.3-.9.6-1l8.5-4.1.4 1.5-1.2.3c-1.2.4-2.4.7-3.5 1.2-1.6.7-2.1 1.7-1.9 3.4 0 .4.2.8.2 1.1.5 2.5-1 4.3-3.2 4.7-.2 0-.5 0-.7-.1-1-.4-.7.2-.5.7-.5.1-1 .2-1.4.3-.1-.3-.2-.6-.3-.8l.9-.6c.8-.5 1.6-1 2.4-1.6 1-.7 1.2-1.8.7-2.9-.2-.8-.6-1.5-1-2.1z"/><path class="st15" d="M106.4 105.3c0-.9-.1-2.5-.2-3.6-.3-2-1-3.9-1.4-5.8-.4-1.7-1.2-3.5-1.1-5.2.2-1.9.1-3.7-.7-5.4-1.4-2.8-2.9-5.6-4.5-8.4-.6-1.1-1.4-2.3-2.4-2.9-1.9-1-4.5-1.8-6.2-1.9-.7 0-2.9.2-3 .3h2.5c5.2.4 8.1 3.8 10.2 7.9 1.3 2.5 2.2 5.2 3.2 7.7.3.7.1 1.1-.6 1.4-.4.2-.8.4-1.1.7l.4 1.5 1.4 5.7.7 4c.3 3-.7 5.5-3.2 7.3-1.6 1.2-3 2.7-4.7 3.6-6.2 3.3-12.8 5.6-19.8 6.6-3.6.5-7-.3-10.2-1.8-2.3-1.1-4.5-2.2-6.7-3.4-2.2-1.2-3.2-3.3-3.7-5.6-1-4.9-1.1-9.9-.9-14.8 0-.2.3-5.8 1.5-8.5-.3.3-.7.5-.9.8-1.2 2.3-1.9 4.7-1.8 7.3.1 3.6.2 7.2.4 10.7.2 3.2.7 6.4 1.1 9.6-.1 1.8-1.4 2.2-2.9 2.5-3.7.7-6.1-.8-6.7-4.5 0-.2-.2-.5-.3-.7-.3-3.9-.5-7.7-.9-11.6-.6-4.9-1.3-9.9-2.1-14.8-.3-2-.9-4.2-2.6-5.5-2.1-1.6-4.5-2.7-6.9-3.9-2.4-1.3-4.9-2.5-7.3-3.9l-6.1-3.8-.3 1.2 1.2.5c1.3.9 2.6 1.8 3.9 2.6l10.2 5.9c.9.5 1.7 1.1 2.6 1.8 2.5 2 3.9 4.7 3.6 8 .2 1.1.4 2.3.7 3.4.6 4.4 1.3 8.8 1.8 13.3.2 2 0 4.1-.3 6.1-.2 1-.8 2.2-1.6 2.9-2.1 2.1-4 3.8-7.9 5.2 2.2 1.4 6.2 2.7 8.6 3.3 8.2 1.9 16.6 2.2 25 1.5 9.8-.8 19.3-2.7 28.3-6.7 2.7-1.2 5.2-3 7.8-4.5l1.6-1.2c2-1.6 2.3-4.3 2.3-4.9z"/><path class="st5" d="M100.4 92l1.2-.3 1.4 5.7-.9-1.4c-.4-.6-.9-1.1-1.4-1.6l-.3-2.4z"/><path class="st13" d="M41.2 90.2c-.1.3-.9 1.9-2.4 2.9-2.5 1-5 2.3-7.9 2.1-.6 0-1.1-.2-1.7-.3-.5-.1-1.1-.3-1.5-.1-1.2.6-2.3.5-3.4.2-1.1-.4-1.9 0-2.4 1-.1.2-.3.3-.3.5-1 1.9-2.4 2.9-4.6 2.1v-1.2c2 .3 3.3-.8 4.5-2.3.8-1.3 1.9-1.6 3.3-1.1 1.3.4 2.4-.2 3.4-.8l1.2-1c.7.9 1.3 2 2.7 1.8.5-.1 4-.7 4.7-.9.6-.2 1.4-.6 2-.9.6-.6 2.2-2 2.4-2z"/><path class="st1" d="M16.9 97.3v1.2l-1.8 4.9c-.6 1.6-1.1 1.9-2.6 1.3-1.2-.4-2.4-.9-3.6-1.4-.8-.3-1-.8-.7-1.6.7-2 1.3-4 1.9-6 .1-.5.2-1 .2-1.4.2-.2.4-.5.7-.7l.8.5c.3.3.7.6 1 .8l-.3.6c-.9-.3-1.5-.3-1.7.9-.2 1.2-.7 2.3-1.1 3.4-.8 2-.7 2.4 1.3 3.2.5.2 1.1.6 1.6.6s1.2-.3 1.4-.7c.6-1.6.9-3.2 1.4-4.9.4-.3.8-.6 1.2-1l.3.3z"/><path class="st13" d="M11 93.6c-.2.2-.4.5-.7.7l-2.6-1.8.8-2.7 1.6-2c.4-.7.6-1.5-.6-1.8l.4-.7c1.8 1.4 1.8 1.5.9 2.7-2 1.9-2 3.6-.1 5.1.2.2.3.4.3.5z"/><path class="st11" d="M12 73.9c.6-.8 2.3-3 3.1-3.6 1.1-.8 2.5-1.9 3.9-2.3l1.2.5c.1.3.1.7.3.9l8.1 5.3c2.3 1.5 4.6 3 6.8 4.6 1.1.7 1.1 2 .1 2.2-3.1.6-4.6 3-6 5.4-.8 1.4-1.6 2.8-2.6 4.1-1.5 1.9-3 1.4-5.1.2-1-.6-.9-1.2 0-3.4l.4-.6c.7-1.7 1.6-3.4 2.2-5.1.8-2.4-.7-4.3-3.3-4.6-2.3-.2-3.8 1.1-5.1 2.7l-2.4 3.2c-.5.5-1.4.9-2.1.7-.4-.1-.7-1.2-.8-1.8-.1-.6 0-1.2.1-1.7.8-2.4 1.3-4.9 3-7 .2-.3-1.7.5-1.8.3z"/><path class="st6" d="M13.4 72.1c1.7-2.4 1.5-.2.5 1.4-1.7 2-2.3 4.6-3 7-.2.5-.3 1.2-.1 1.7.1.7.4 1.8.8 1.8.6.1 1.6-.3 2.1-.7.9-.9 1.5-2.2 2.4-3.2 1.3-1.6 2.8-2.9 5.1-2.7 2.6.2 4.1 2.1 3.3 4.6-.6 1.8-1.4 3.4-2.2 5.1l-.4.6c-1 2.1-1 2.8 0 3.4 2 1.3 3.5 1.7 5.1-.2 1-1.2 1.8-2.7 2.6-4.1 1.4-2.5 2.9-4.8 6-5.4 1-.2 1-1.4-.1-2.2-2.2-1.6-4.5-3.1-6.8-4.6l-8.1-5.3c-.2-.1-1.4-1.1-1.5-1.4 1.5.2 3.8 2.3 5.1 3.1l10.2 5.9c.9.5 1.7 1.1 2.6 1.8 2.5 2 3.9 4.7 3.6 8l-.8-1.7c-1.2-2.2-3-2.7-5-1.1-.7.5-1.3 1.2-1.8 1.9-1.3 2-2.5 4-3.7 6-.4.4-.7.8-1.2 1-1.1.6-2.1 1.3-3.4.8-1.4-.5-2.5-.2-3.3 1.1.1-.9-.5-1-1.2-.9.8-1.1.3-1.7-.8-1.9-.2 0-.4-.1-.6-.2.1-.6.2-1.3.4-1.8 1.2-2.5 2.5-4.9 3.8-7.3 1.2-2.3-.2-4.3-2.8-4.1-.4 0-1 .3-1.2.6-1.7 3-3.4 6-5.1 9.1-.3.1-1 .1-1.4.5 0-.4-.5-.6-1.5-.8.9-1.2.9-1.3-.9-2.7l-.7-1.5c-.6-1.2-.7-2.6-.2-4 .6-1.9 1.7-4.1 2.9-6 .2-.4.8-1.2 1.3-1.6z"/><path class="st10" d="M29.3 91.9c1.2-2 2.4-4 3.7-6 .5-.7 1.1-1.4 1.8-1.9 1.9-1.5 3.8-1.1 5 1.1.3.6.6 1.1.8 1.7.2 1.1.4 2.3.7 3.4-.9.7-1.6 1.3-2.2 1.6l-.8.4-1.5.6-4.7.9c-1.5.2-2.1-.9-2.8-1.8z"/><path class="st5" d="M9.6 86.1c1.1.3 1 1.1.6 1.8s-1 1.4-1.6 2c.3-1.3.6-2.5 1-3.8z"/><path class="st6" d="M63.2 86.9c.1 0 .1.1.1.1h-.2l.1-.1zM63.7 87.8l-.1-.1h.1c-.1.1 0 .1 0 .1z"/><path class="st4" d="M56.6 103.2c-1.1-.8-1.4-2-.7-3l1-1.2 1.5.5c2.6 1.1 5.3 2.1 8.2 1.3v.3c-.6.2-1.2.6-1.9.6-1.8-.1-3.6-.3-5.3-.4 1.6 1.9 5.3 3.3 8.1 3.4 2.8.2 5.4-.8 8-1.8 1.2-.5 2.4-.6 3.6.4 1.2 1 2.5 1.9 3.8 2.7.8.5 1.5.9 1.7 1.8.4 1.6.9 3.2 1.2 4.8.1.9.6 1 1.3 1.1.4 0 .8-.1 1.1-.2-2 1.3-3.9 2.9-6.5 2.1.3-1.3.9-2.5.8-3.8-.2-2.5-.8-4.8-3.8-5.2-2.4-.3-4.9-.3-7.3-.4-2.1-.1-4.3.2-6.4-.3-2.3-.5-4.3-1.7-6.5-2.6-.6-.3-1.2-1.1-1.9-.1z"/><path class="st10" d="M66.6 100.9c-2.9.8-5.6-.2-8.2-1.3-.5-.2-1-.4-1.5-.5-1.9-1.4-1.6-3.4-1.3-5.3l.1-2c-.1-1.6.8-2.9 1.7-4.1.9-1.1 1.8-1.1 2.8-.2.6.5 1.2 1.1 1.5 1.8l5 11.1s-.1.3-.1.5z"/><path class="st1" d="M88.3 113.6c-.4.1-.8.2-1.1.2-.6-.1-1.1-.2-1.3-1.1-.3-1.6-.8-3.2-1.2-4.8-.2-.9-.9-1.4-1.7-1.8-1.3-.8-2.6-1.7-3.8-2.7-1.2-1-2.3-.9-3.6-.4-2.6.9-5.2 1.9-8 1.8-2.9-.2-6.5-1.5-8.1-3.4 1.8.2 3.6.4 5.3.4.6 0 1.2-.4 1.9-.6.8 1.5 2 1.4 3.4 1 2.4-.7 4.9-1.1 7.2-1.9 1.3-.5 2.1-.4 2.9.8.5 1.7 1.7 2.7 3.4 3.2h1.2l2.4-.9.6-.1c.5.3.6 1.6 1.7 1-.3 1.2-1.3 1.2-2.2 1.1-1.3-.2-1.5 0-1.3 1.2.1.6.2 1.2.3 1.9.3 3.4.9 3.9 4.2 2.8 0 0 .1 0 .1-.1 1.8-.6 1.8-.8 1.4-2.6-.4-1.8-.7-3.6-1-5.5-.2-.5-.5-1 .5-.7.2.1.5.1.7.1.1.7.3 1.4.5 2.1l1.6 6.8c-2.1.6-4.1 1.4-6 2.2z"/><path class="st9" d="M83.4 98.2l-1.7-5.7c-.5-1.6-1.2-3.2-1.8-4.8-.4-1.2.2-2.4 1.7-3.1 1.1-.5 2.6-.3 3.1.7 1 1.9 1.9 3.9 2.7 5.9.5 1.3.9 2.6 1.3 3.9v.6l.6 4.5c-.3.2-.6.4-.9.7l-.8-1.2c-.2-.3-.4-.6-.7-.9l-.9.8-.5 1.2-1.2-1.2c-.2-.6-.5-1-.9-1.4z"/><path class="st13" d="M83.4 98.2c.3.4.6.9 1 1.3l1.2 1.2.5-1.2c.2.5.4 1 .7 1.4-.2.2-.3.5-.5.6-1.3.7-2.6.7-3.9 0l-.1-.4c-1.5-2.4-1.5-2.4 1.1-2.9z"/><path class="st11" d="M87.1 103.2l-2.4.9h-1.2c-1.7-.4-2.8-1.5-3.4-3.2.5-.5.9-.5 1.4.1.2.2.5.3.8.4.4 1.5 1.6 1.2 2.7 1 .9-.1 1.8-.5 2.1.8zM92 95.3c.4.7.8 1.3 1.1 2 .4 1.1.3 2.1-.7 2.9-.8.6-1.6 1.1-2.4 1.6-.6-.4-1.1-.8-.1-1.3.4-.2.6-.7.9-1.1.1-.2.3-.4.4-.5.9-.5.6-1 0-1.5l-.1-.3c.1-.3.2-.7.4-1 .2-.3.4-.6.5-.8z"/><path class="st13" d="M91.1 97l.1.3v1.5c-.1.2-.3.4-.4.5-.2 0-.4 0-.5.1l-.6-3.6c.2.1.5 0 .7.2.3.3.5.7.7 1z"/><path class="st1" d="M89.7 95.8l.6 3.6-.9.6-.6-4.5h.3l.6.3z"/><path class="st13" d="M89.2 95.5h-.3v-.6l.3.6z"/><path class="st4" d="M52.3 35.3c-2.4-.2-4.1-.2-5.7-.5-.6-.1-1.3-.9-1.5-1.5-.3-.9.6-1.2 1.3-1.4 4.8-1.1 9.5-2.1 14.3-3.1 3.7-.8 7.4-1.5 11.1-2.2 1.5-.2 3.1-.2 4.6 0 .6.1 1.1.6 1.7 1-.3.5-.6 1.1-1 1.3-2.1 1-4.2 2.2-6.4 2.9-2.8.9-5.7 1.6-8.6 2.1-3.5.6-7 1-9.8 1.4zM98.7 42.4c-.1.8-.2 1.6-.4 2.4-.1.4-.5.8-.8.9-.3.1-.9-.3-1-.6-.6-1.1-1.1-2.4-1.6-3.5l-.1-.4c-1.7-2.8-3.3-5.7-5.2-8.4-1.9-2.7-4.1-5.1-6.1-7.7-.3-.3-.4-.8-.4-1.2-.1-1.1-.1-2.2 1.1-2.8 1.3-.7 3.3-.4 4.5.7 2.4 2.1 4.1 4.6 5.5 7.4 1.5 2.9 2.8 6 4 9 .4 1.2.3 2.7.5 4.2z"/><path class="st13" d="M52.1 13.2c-1.8-1-2.9-2.6-3.7-4.4-.4-1.1-.2-2.3 1-2.9l2.1-1c3.1-1.2 6.2-1.8 9.5-2.1l5.1-.3c.5 0 .9.2 1.4.3l.3 1.8c-4.2-.6-8.3-.3-12.4.7-1.2.3-2.4.7-3.6 1.3-1.8.9-2 1.8-1.2 3.6l1.5 3z"/><path class="st8" d="M68.7 6.7l-1.1 5.1c-.3 1.1-1.4 1.3-2.4 1.4-1 .1-1.2-.8-1.5-1.5l.1-.3.8-1.2c.7-1 1.4-2 2.1-2.9.6-.2 1.3-.4 2-.6z"/><path class="st1" d="M67.8 4.7l-.3-1.8h.6c1.6.6 2.7 1.6 2.4 3.5l-1.2-.3c-.4-.3-.8-.6-1.3-.9 0-.2-.1-.4-.2-.5z"/><path class="st4" d="M68.1 5.2c.4.3.8.6 1.3.9v.6h-.6l-2.1.6v-.3c.4-.6.9-1.2 1.4-1.8z"/><path class="st2" d="M66.6 6.9v.3c-.7 1-1.4 2-2.1 2.9.7-1 1.4-2.1 2.1-3.2zM64.5 10.2l-.8 1.2c.3-.4.6-.8.8-1.2z"/><path class="st11" d="M66.2 64.1l-.3-2-1.7.6.3 2c.1 1-.4 1.1-1.5 1.5-1 .3-1.4.5-2.2.4 0-.2-.3-1.5-.5-1.9-.2-.6-.7-1.1-.8-1-.1 0-.4.4-.4 1.1 0 .8.2 1.7.3 2-.6.1-1.1.1-1.7 0h-.3c-1.2.1-1.7-.6-2-1.7-.3-.9-.5-1.8-.8-2.8h-1.9c.1 3.3 1.3 5.9 4.8 6.8.5.2 1.7 0 2.3.3.4.2.2 1.2.5 1.7 0 .1.5.5.8.5.3-.1.4-.7.4-.8.2-.6-.2-1.5 0-1.7.3-.4 1.3-.3 1.9-.5 2.1-.5 3.1-2 2.8-4.5zM94.5 59.2l.4.9-.6 1c-.3-.2-.6-.4-.8-.6-.2-.1-.3-.3-.5-.5-.2-.6-.4-1.2-.7-1.8-.3-.6-.6-1.1-.7-1.7-.1-.2.3-.7.5-.9.1-.1.6.2.8.4.3.4.5.8.7 1.3.3.7.6 1.3.9 1.9z"/><path class="st1" d="M90.4 46.4c0 .9-1.1 1.1-1.5 1.1-.4 0-.9-.4-.9-1s.5-1 .8-1.1c.8-.3 1.5.1 1.6 1zM91.8 50.4c0 .9-1.1 1.1-1.5 1.1-.4 0-.9-.4-.9-1s.5-1 .8-1.1c.9-.3 1.6.1 1.6 1zM59.7 54.7c0 .9-1.1 1.1-1.5 1.1-.4 0-.9-.4-.9-1s.5-1 .8-1.1c.8-.3 1.5.1 1.6 1zM60.5 59.3c0 .9-1.1 1.1-1.5 1.1-.4 0-.9-.4-.9-1s.5-1 .8-1.1c.9-.3 1.6.1 1.6 1z"/><path class="st6" d="M94.5 59.2l-.9-1.8 1.2-.6c.3-.2.6-.4.9-.5l.6-.3c-.3.4-.5.9-.9 1.2-.7.6-.7 1.1.2 1.4-.3.1-.7.3-1.1.6zM92.3 58.2c.2.6.4 1.2.7 1.8l-.9.3c.1-1-.2-1.3-1.2-1-.3.1-.8-.1-1.2-.2.1-.1.2-.2.3-.2.8-.3 1.6-.5 2.3-.7z"/><path class="st1" d="M95.7 56.2c-.3.2-.6.4-.9.5l.1-1.3c.3.3.5.6.8.8zM94.5 53.5c.1.5.2 1 .4 1.5-.2-.5-.3-1-.4-1.5z"/><path class="st13" d="M69.3 6.7v-.6l1.2.3-1.5 5.9v-2.2l.3-3.4z"/><path class="st6" d="M89.2 59.1c-1.2.3-1.9-.2-2-1.5.6.5 1.3 1 2 1.5z"/><path class="st2" d="M56.6 103.2c.7-1.1 1.3-.2 2 .1 2.2.9 4.3 2.1 6.5 2.6 2 .5 4.2.2 6.4.3 2.4.1 4.9.1 7.3.4 3 .4 3.6 2.7 3.8 5.2.1 1.2-.5 2.5-.8 3.8-.8.4-1.5.9-2.3 1.2-2.8 1.1-5.7.7-8.6.2-3.8-.7-7.4-2-10.5-4.4-2.6-2-4.2-4.6-4.1-8 0-.4.2-.9.3-1.4z"/><path class="st4" d="M94.2 111.2l-1.6-6.8-.5-2.1c2.2-.4 3.7-2.2 3.2-4.7-.1-.4-.2-.8-.2-1.1-.2-1.7.2-2.6 1.9-3.4 1.1-.5 2.3-.8 3.5-1.2l.3 2.4c-2.5.1-2.7 1.5-3 3-.3 2-.8 4-1.2 6-.1.4-.4.8-.7 1.1-1.5 2.2-1.4 3.1.4 5-.1 1.4-1 1.7-2.1 1.8z"/><path class="st9" d="M90.9 102.9c.3 1.8.6 3.7 1 5.5.4 1.8.4 2-1.4 2.6 0 0-.1 0-.1.1-3.3 1.1-4 .7-4.2-2.8 0-.6-.2-1.3-.3-1.9-.2-1.2 0-1.4 1.3-1.2.9.1 1.9.2 2.2-1.1l.1-.9c.4-.1.9-.2 1.4-.3z"/><path class="st11" d="M89.5 103.2l-.1.9c-1.1.6-1.1-.6-1.7-1l-.9-2.3c-.2-.5-.4-1-.7-1.4l.9-.8.7.9.8 1.2c.2.6.4 1.1.7 1.7.1.2.2.5.3.8z"/><path class="st6" d="M89.2 102.4c-.2-.6-.4-1.1-.7-1.7.3-.2.6-.4.9-.7l.9-.6c.2 0 .4 0 .5-.1-.3.4-.5.9-.9 1.1-1 .6-.5.9.1 1.3-.2.3-.5.5-.8.7z"/><path class="st11" d="M20.1 94c.7-.1 1.3 0 1.2.9-1.1 1.5-2.5 2.5-4.5 2.3h-.2l-2-1.4c0-.2 0-.4.1-.6l1.5-.3.9.3c.9 1 1.5.5 2.1-.3l.9-.9z"/><path class="st9" d="M15.5 98.2c-.4 1.6-.8 3.3-1.4 4.9-.1.3-.9.7-1.4.7-.5 0-1.1-.4-1.6-.6-2-.8-2.1-1.2-1.3-3.2.4-1.1.9-2.3 1.1-3.4.2-1.2.8-1.3 1.7-.9.1.4.2.8.2 1.1.2.9.6 1.3 1.6 1 .3-.1.7.2 1.1.4z"/><path class="st11" d="M10.9 88.1c1 .2 1.6.2 1.5.8-.1.4-1 1.5-1 2 0 .3 0 .5.2.8.3.4.9.6 1.3 1 .7.9-.5 1.4-1.1 1.5-.3-.2-1.1-.7-1.2-.8-1.8-1.6-1.6-3.4.3-5.3zM12.8 96.7c-.1-.4-.2-.8-.2-1.1l.3-.6 1.1-1.7.5-.7c.4-.3.8-.5 1.2-.7v1.5c-.2.3-.3.7-.4 1-.1.3-.8 1.3-1 1.4-.6.3-1 .6-1.5.9z"/><path class="st13" d="M12.8 96.7c.5-.3 1-.6 1.4-.9.2 0 .4.1.5.1l2 1.4c-.4.3-.8.6-1.2 1-.4-.2-.8-.6-1.1-.5-1 .2-1.5-.2-1.6-1.1z"/><path class="st6" d="M13.9 93.3l-1.1 1.7c-.3-.3-.7-.6-1-.8.6-.1.7-1.7 1.2-1.4.3.1.6.3.9.5z"/><path class="st9" d="M13.9 93.3c-.3-.2-.6-.4-1-.6l.9-4.3 5.1-9.1c.2-.3.8-.6 1.2-.6 2.6-.2 4 1.9 2.8 4.1-1.3 2.4-2.2 4.8-3.5 7.3l-.8 1.8c-.4.7-.8 3.6-1.6 3.3-.4-.1-1.6-.5-2-.9.1-.3.1-.3.5-.9v-1.5c-.4.2-.8.4-1.2.7l-.4.7z"/><path class="st13" d="M18.7 91.9l.6.2c1.1.3 1.6.8.8 1.9l-.9.9-2.1.3c-.2 0 1.2-2.5 1.6-3.3zM13.9 88.4l-.9 4.3c-.5-.3-1.1-.5-1.4-.9-.2-.3-.2-.6-.1-.9 0-1.4.7-2.6 2.4-2.5z"/><path class="st6" d="M86.8 100.9l.9 2.3-.6.1c-.3-1.3-1.2-.9-2.1-.8-1.1.2-2.2.5-2.7-1 1.3.8 2.6.7 3.9 0 .3-.1.4-.4.6-.6zM83.5 104.1h1.2-1.2z"/><path class="st8" d="M85 89.6c0 .9-1 .9-1.4.9-.4-.1-.9-.5-1-.9-.2-.6.5-1.4 1.3-1.3.5 0 1.2.3 1.1 1.3zM86.8 94.1c0 .9-1 .9-1.4.9-.4-.1-.9-.5-1-.9-.2-.6.5-1.4 1.3-1.3.5.1 1.1.3 1.1 1.3z"/><path class="st6" d="M91.3 98.8v-1.5c.5.5.9 1 0 1.5zM17.2 95.3l2.1-.3c-.6.8-1.3 1.3-2.1.3zM16.3 95c-.4-.2-.8-.4-1.1-.6-.1.3-.2.5-.4.8-.2.3-.4.6-.5.7.2 0 .4.1.5.1 0-.1.6-.5.8-.6.2-.3.4-.4.7-.4z"/><path class="st8" d="M21.1 83.5c0 .8-.8 1-1.4 1-.3 0-.8-.5-.9-.8-.2-.6.5-1.4 1.2-1.2.4 0 1.1.2 1.1 1zM18.3 87.8c0 .8-.8 1-1.4 1-.3 0-.8-.5-.9-.8-.2-.6.5-1.4 1.2-1.2.4 0 1.1.2 1.1 1z"/></g></svg>