<svg xmlns="http://www.w3.org/2000/svg" width="1366" height="650" viewBox="0 0 1366 650"><style type="text/css">.st0{opacity:0.14;} .st1{fill:none;stroke:#989898;}</style><g class="st0"><path class="st1" d="M91.1-97.8l-123.7 69.4 37.1 50.9 86.6-120.3zM91.1-97.8l-86.6 120.3 140.6-13.6-54-106.7zM91.1-97.8l54 106.7 55.4-69.8-109.4-36.9zM200.5-60.9l-55.4 69.8 122.9-42.7-67.5-27.1zM377.3-101.3l-109.3 67.5 113 61.5-3.7-129zM377.3-101.3l3.8 128.9 170.2-161.1-174 32.2zM551.2-133.4l-170.1 161.1 209.7 10.6-39.6-171.7zM551.2-133.4l39.5 171.7 69.3-46.2-108.8-125.5zM804.4-117.1l-144.4 109.2 114.8 15.2 29.6-124.4zM804.4-117.1l-29.6 124.4 153.8-11.5-124.2-112.9zM1023.2-81l-94.6 76.8 115.1 23-20.5-99.8zM1023.2-81l20.4 99.8 165.2-17.7-185.6-82.1zM1339.5-79.7l-56.6 83.7 151.3-8.2-94.7-75.5zM-32.6-28.4l.7 109.4 36.4-58.5-37.1-50.9zM4.5 22.5l-36.4 58.5 92.8 44.8-56.4-103.3zM4.5 22.5l56.3 103.4 84.3-117-140.6 13.6zM145.1 8.9l-84.3 117 158.9-.6-74.6-116.4zM145.1 8.9l74.6 116.3 48.3-159-122.9 42.7zM268-33.8l-48.3 159.1 161.3-97.6-113-61.5zM381.1 27.7l-161.3 97.6 107.3 30.3 54-127.9zM381.1 27.7l-54 127.9 87-44.6-33-83.3zM381.1 27.7l33 83.3 176.7-72.7-209.7-10.6zM590.8 38.3l-176.7 72.7 147.8 36.5 28.9-109.2zM590.8 38.3l-28.8 109.3 107.4-44.3-78.6-65zM590.8 38.3l78.5 64.9-9.3-111.1-69.2 46.2zM660-7.9l9.3 111.1 105.5-95.9-114.8-15.2zM774.8 7.3l-105.5 95.9 84.4 15.7 21.1-111.6zM774.8 7.3l-21.1 111.7 174.9-123.2-153.8 11.5zM928.6-4.2l-174.9 123.2 215 24.9-40.1-148.1zM928.6-4.2l40.1 148.2 70.8-64.1-110.9-84.1zM928.6-4.2l110.9 84 4.2-61-115.1-23zM1043.7 18.8l-4.2 61 100.5 3.3-96.3-64.3zM1043.7 18.8l96.3 64.3 69-81.9-165.3 17.6zM1208.9 1.2l-69 81.9 136.5 29.1-67.5-111zM1208.9 1.2l67.6 111 6.4-108.2-74-2.8zM1282.9 4l-6.4 108.1 175.9-26.3-169.5-81.8zM1282.9 4l169.5 81.8-18.2-90-151.3 8.2zM-31.9 81l-42.5 184.4 135.2-139.5-92.7-44.9zM60.8 125.9l-135.2 139.6 172.5-35.7-37.3-103.9zM60.8 125.9l37.3 103.9 39.4-41.2-76.7-62.7zM60.8 125.9l76.7 62.7 82.2-63.3-158.9.6zM219.8 125.3l-82.2 63.3 114.7-7.5-32.5-55.8zM219.8 125.3l32.5 55.8 74.8-25.5-107.3-30.3zM327.1 155.6l-74.8 25.5 171.9 79.3-97.1-104.8zM327.1 155.6l97.1 104.8-10.1-149.4-87 44.6zM414.1 111l10.1 149.4 137.7-112.8-147.8-36.6zM561.9 147.6l-137.7 112.8 166.3-24.4-28.6-88.4zM561.9 147.6l28.5 88.4 122.5-26-151-62.4zM561.9 147.6l151 62.5-43.6-106.8-107.4 44.3zM669.3 103.2l43.6 106.8 40.8-91.1-84.4-15.7zM753.7 119l-40.8 91 54.7-3.9-13.9-87.1zM753.7 119l13.9 87.2 201.1-62.2-215-25zM968.7 143.9l-201.1 62.2 153.8 23.9 47.3-86.1zM968.7 143.9l-47.3 86.1 115.2 34-67.9-120.1zM968.7 143.9l68 120.1 95.7-20.4-163.7-99.7zM968.7 143.9l163.7 99.7-92.9-163.9-70.8 64.2zM1039.4 79.8l92.9 163.9 7.6-160.6-100.5-3.3zM1139.9 83.1l-7.6 160.6 144.1-131.5-136.5-29.1zM1276.4 112.2l-144.1 131.5 174.6 20.4-30.5-151.9zM1276.4 112.2l30.5 151.9 119.2-5.7-149.7-146.2zM1276.4 112.2l149.7 146.2 26.2-172.5-175.9 26.3zM-74.4 265.5l-19.9 90.2 145.4-44-125.5-46.2zM-74.4 265.5l125.4 46.1 47.1-81.9-172.5 35.8zM98.1 229.7l-47.1 81.9 172.6 32.1-125.5-114zM98.1 229.7l125.5 114-86.1-155.2-39.4 41.2zM137.6 188.5l86.1 155.2 28.6-162.6-114.7 7.4zM252.3 181.1l-28.6 162.6 180.3-23.8-151.7-138.8zM252.3 181.1l151.7 138.8 20.2-59.5-171.9-79.3zM424.2 260.4l-20.2 59.5 138.3-5.5-118.1-54zM424.2 260.4l118.1 54 48.1-78.4-166.2 24.4zM590.5 236l-48.1 78.4 148.2 10-100.1-88.4zM590.5 236l100.1 88.4 22.3-114.4-122.4 26zM712.9 210l-22.4 114.4 77.1-118.2-54.7 3.8zM767.6 206.2l-77.1 118.2 150 18.7-72.9-136.9zM767.6 206.2l72.9 136.9 80.9-113-153.8-23.9zM921.4 230l-80.9 113 37.5 7 43.4-120zM921.4 230l-43.5 120 158.7-86-115.2-34zM1036.7 264.1l-158.7 86 177.3 11-18.6-97zM1036.7 264.1l18.6 97 84.8-4.4-103.4-92.6zM1036.7 264.1l103.4 92.7-7.7-113.1-95.7 20.4zM1132.4 243.6l7.7 113.1 166.9-92.6-174.6-20.5zM1306.9 264.1l-166.9 92.6 62.1 39.9 104.8-132.5zM1306.9 264.1l-104.7 132.5 129.5-42.7-24.8-89.8zM1306.9 264.1l24.8 89.8 47-64.6-71.8-25.2zM1306.9 264.1l71.8 25.2 47.4-30.9-119.2 5.7zM-94.3 355.7l-20.9 98.2 132.2 1.9-111.3-100.1zM-94.3 355.7l111.3 100.1 34-144.1-145.3 44zM51 311.6l-34 144.2 130.7 10.9-96.7-155.1zM51 311.6l96.7 155.1 75.9-123-172.6-32.1zM223.6 343.7l-75.9 123 121.2-98.7-45.3-24.3zM223.6 343.7l45.3 24.2 135.1-48-180.4 23.8zM268.9 368l-121.2 98.7 162-25.1-40.8-73.6zM268.9 368l40.9 73.7 66.4-16.6-107.3-57.1zM268.9 368l107.3 57 27.8-105.1-135.1 48.1zM404 319.9l-27.8 105.1 166.1-110.6-138.3 5.5zM542.3 314.4l-166.1 110.6 203.5.8-37.4-111.4zM542.3 314.4l37.3 111.4 110.9-101.4-148.2-10zM690.5 324.4l-110.8 101.4 51.6 24.3 59.2-125.7zM690.5 324.4l-59.2 125.7 185.1-22.5-125.9-103.2zM690.5 324.4l125.9 103.2 24.1-84.5-150-18.7zM840.5 343.1l-24.1 84.5 61.5-77.5-37.4-7zM877.9 350l-61.5 77.5 93.1 12.3-31.6-89.8zM877.9 350l31.6 89.8 145.7-78.7-177.3-11.1zM1055.2 361.1l-145.7 78.7 153.7 12.8-8-91.5zM1055.2 361.1l8 91.5 76.9-95.9-84.9 4.4zM1140.1 356.7l-76.9 95.9 139-56-62.1-39.9zM1331.7 353.9l-129.5 42.7 85.2 48.3 44.3-91zM1331.7 353.9l-44.3 91 175.8 20.3-131.5-111.3zM1331.7 353.9l131.5 111.3 62.6-161.1-194.1 49.8zM1331.7 353.9l194.1-49.8-147.1-14.8-47 64.6zM-115.2 453.8l24.9 73.3 107.3-71.3-132.2-2zM17 455.8l-107.3 71.4 135.5 4.8-28.2-76.2zM17 455.8l28.1 76.2 102.6-65.2-130.7-11zM147.8 466.7l-102.6 65.2 173.5 47-70.9-112.2zM147.8 466.7l70.9 112.2 91.1-137.2-162 25zM309.8 441.7l-91.1 137.2 118.9 3.1-27.8-140.3zM309.8 441.7l27.8 140.3 38.6-157-66.4 16.7zM376.2 425l-38.6 157 126.7-21.7-88.1-135.3zM376.2 425l88.1 135.3 115.4-134.5-203.5-.8zM579.7 425.8l-115.4 134.5 97.1 25.1 18.3-159.6zM579.7 425.8l-18.2 159.6 69.9-135.3-51.7-24.3zM631.3 450.1l-69.9 135.3 150.7-43.8-80.8-91.5zM631.3 450.1l80.8 91.6 104.3-114.1-185.1 22.5zM816.4 427.6l-104.3 114 119.3-24.5-15-89.5zM816.4 427.6l15 89.6 78.1-77.3-93.1-12.3zM909.5 439.8l-78.1 77.3 43.1 30.1 35-107.4zM909.5 439.8l-35 107.4 131.5-6.6-96.5-100.8zM909.5 439.8l96.5 100.9 57.2-88.1-153.7-12.8zM1063.2 452.6l-57.2 88.1 85.2 84.8-28-172.9zM1063.2 452.6l28 172.9 125.7-61.7-153.7-111.2zM1063.2 452.6l153.8 111.2-14.7-167.2-139.1 56zM1202.2 396.6l14.7 167.2 70.5-118.9-85.2-48.3zM1287.4 444.9l-70.5 118.9 28.9 8.3 41.6-127.2zM1287.4 444.9l-41.5 127.2 212.6-34.4-171.1-92.8zM1287.4 444.9l171.1 92.8 4.8-72.5-175.9-20.3zM-90.3 527.2l37.1 119.3 98.4-114.5-135.5-4.8zM45.2 531.9l-98.4 114.5 121.7 44.3-23.3-158.8zM45.2 531.9l23.3 158.9 150.2-111.9-173.5-47zM218.7 578.9l-150.2 111.9 98.5-1.2 51.7-110.7zM218.7 578.9l-51.7 110.7 89.3-44.2-37.6-66.5zM218.7 578.9l37.5 66.5 81.3-63.4-118.8-3.1zM337.6 582l-81.3 63.4 159.7 13.1-78.4-76.5zM337.6 582l78.4 76.5 48.3-98.2-126.7 21.7zM464.3 560.3l-48.3 98.2 110.6 15.9-62.3-114.1zM464.3 560.3l62.3 114.1 34.9-89-97.2-25.1zM561.4 585.4l-34.9 89 140.6-.7-105.7-88.3zM561.4 585.4l105.7 88.3 45-132.1-150.7 43.8zM712.1 541.6l-45 132.1 148.2-64-103.2-68.1zM712.1 541.6l103.2 68.1 16.1-92.6-119.3 24.5zM831.4 517.2l-16.1 92.6 59.2-62.5-43.1-30.1zM874.5 547.2l-59.2 62.5 133.9 13.2-74.7-75.7zM874.5 547.2l74.7 75.7 56.7-82.2-131.4 6.5zM1006 540.7l-56.7 82.2 142 2.5-85.3-84.7zM1216.9 563.8l-125.7 61.7 35.8 11.4 89.9-73.1zM1216.9 563.8l-90 73.1 119.9 39.1-29.9-112.2zM1216.9 563.8l29.9 112.2-1-103.8-28.9-8.4zM1245.9 572.1l1 103.8 161-48.6-162-55.2zM1245.9 572.1l162 55.2 50.6-89.6-212.6 34.4zM667.1 673.7l89.3 52.1 58.8-116.1-148.1 64zM815.3 609.7l-58.8 116.1 205.4 22.5-146.6-138.6zM815.3 609.7l146.6 138.6-12.6-125.4-134-13.2zM949.2 622.9l12.6 125.4 90.7 2.5-103.3-127.9zM949.2 622.9l103.3 127.9 38.6-125.4-141.9-2.5zM1091.2 625.5l-38.6 125.4 74.4-114-35.8-11.4zM1126.9 636.9l-74.4 114 108.2-23.8-33.8-90.2zM1126.9 636.9l33.8 90.1 86.1-51.1-119.9-39zM1246.8 675.9l135.2 51.1 25.8-99.7-161 48.6z"/></g></svg>