<svg xmlns="http://www.w3.org/2000/svg" width="191.9" height="163" viewBox="0 0 191.9 163"><style type="text/css">.st0{fill:none;stroke:#D2D3D4;stroke-width:15;stroke-miterlimit:10;} .st1{fill:none;stroke:#F1B93C;stroke-width:15;stroke-miterlimit:10;} .st2{fill:none;stroke:#DDE237;stroke-width:15;stroke-miterlimit:10;} .st3{fill:none;stroke:#8EC641;stroke-width:15;stroke-miterlimit:10;} .st4{fill:none;} .st5{fill:#939598;}</style><path class="st0" d="M46.9 144.8c-12.6-12.6-20.4-30-20.4-49.3 0-38.5 31.2-69.7 69.7-69.7s69.7 31.2 69.7 69.7c0 18.2-7 34.8-18.4 47.2"/><path class="st1" d="M46.9 144.8c-12.6-12.6-20.4-30-20.4-49.3 0-38.5 31.2-69.7 69.7-69.7s69.7 31.2 69.7 69.7c0 13.4-3.8 25.9-10.3 36.5"/><path class="st2" d="M46.9 144.8c-12.6-12.6-20.4-30-20.4-49.3 0-38.5 31.2-69.7 69.7-69.7 31.7 0 58.4 21.1 66.9 50"/><path class="st3" d="M46.9 144.8c-12.6-12.6-20.4-30-20.4-49.3 0-38.5 31.2-69.7 69.7-69.7"/><path class="st4" d="M36.3 156.3C21 141 11.5 119.8 11.5 96.4c0-46.8 37.9-84.7 84.7-84.7s84.7 37.9 84.7 84.7c0 22.2-8.5 42.3-22.4 57.4"/><path class="st5" d="M31.7 158.3c-.8.7-1.6 1.3-2.2 1.5-.7.3-1.3.4-1.8.3s-1.1-.4-1.5-.9c-.3-.4-.6-.8-.7-1.2-.1-.4-.1-.8 0-1.3.1-.4.3-.9.7-1.4s.8-1 1.5-1.6c.8-.7 1.6-1.2 2.2-1.5s1.3-.4 1.8-.3c.6.1 1.1.4 1.6.9.6.7.8 1.4.7 2.2-.2 1.1-1 2.2-2.3 3.3zm-.8-.8c1.2-1 1.8-1.8 1.9-2.5.1-.6 0-1.1-.3-1.5-.4-.4-.8-.6-1.5-.5-.6.1-1.5.6-2.7 1.7-1.2 1-1.8 1.9-1.9 2.5s0 1.1.3 1.5c.4.4.8.6 1.3.5.8-.2 1.8-.7 2.9-1.7zM14.9 133.6c-1 .4-1.9.7-2.6.7s-1.3-.1-1.8-.3c-.5-.3-.9-.7-1.2-1.4-.3-.4-.3-.9-.3-1.3s.2-.8.4-1.2c.3-.4.6-.7 1.1-1.1.5-.3 1.1-.7 2-1 1-.4 1.9-.7 2.6-.7.7-.1 1.3.1 1.8.3.5.3.9.7 1.2 1.4.3.8.3 1.6-.1 2.3-.5.8-1.5 1.6-3.1 2.3zm-.5-1.1c1.4-.6 2.3-1.2 2.6-1.7.3-.5.4-1 .2-1.5s-.6-.8-1.2-.9-1.6.1-3.1.7c-1.4.6-2.3 1.2-2.6 1.7-.3.5-.4 1-.2 1.5s.6.8 1.1.9c.7.1 1.8-.1 3.2-.7zM16.3 124.6l-1.3.4-.4-1.2 1.2-.4.5 1.2zM12.9 122.5l-.4-1.1c.5-.2.9-.6 1.1-1s.2-.8.1-1.3-.5-.9-1-1.2c-.5-.3-1.1-.3-1.8-.1-.6.2-1.1.5-1.4.9-.3.5-.3 1-.2 1.6.1.4.3.7.5.9s.5.4.8.5l.2 1.1-4.9.4-1.2-4.5 1.1-.3 1 3.6 2.6-.2c-.5-.4-.9-1-1-1.6-.2-.8-.1-1.5.3-2.2s1-1.2 1.9-1.4c.8-.2 1.6-.2 2.3.1.9.4 1.5 1.1 1.8 2.1.2.8.2 1.6-.1 2.2-.4.8-.9 1.2-1.7 1.5zM11.8 89.4l-.1 1.2-7.3-.5c.2.3.5.7.7 1.1.2.5.4.9.5 1.3l-1.1-.1c-.3-.7-.6-1.3-1-1.8s-.8-.9-1.2-1.1l.1-.7 9.4.6zM18.4 59.9l1 .4-2.4 5.8c-.3-.1-.5-.2-.7-.4-.3-.3-.6-.7-.9-1.2-.2-.5-.5-1.1-.7-2-.4-1.3-.7-2.2-1-2.7-.3-.5-.7-.9-1.1-1-.4-.2-.8-.2-1.3 0-.4.2-.7.5-.9 1-.2.5-.2 1-.1 1.4s.5.8 1.1 1l-.6 1c-.8-.4-1.3-1-1.5-1.6-.2-.7-.2-1.4.2-2.2.4-.8.9-1.4 1.5-1.7.7-.3 1.3-.3 2 0 .3.1.7.4.9.6.3.3.5.7.8 1.2.2.5.5 1.3.8 2.3.3.9.5 1.4.6 1.7s.2.5.4.7l1.9-4.3zM29.7 39.9l.7-1c.6.3 1.1.5 1.5.5.4 0 .8-.2 1.1-.6.4-.4.5-.9.5-1.4s-.2-1-.7-1.4c-.4-.4-.8-.5-1.3-.5s-.9.2-1.3.6c-.1.2-.3.4-.5.7L29 36l.1-.1c.3-.4.5-.8.6-1.2s-.1-.9-.5-1.2c-.3-.3-.7-.4-1.1-.4-.4 0-.8.2-1.1.5-.3.3-.5.7-.4 1.1 0 .4.2.8.5 1.3l-.9.7c-.5-.6-.7-1.3-.7-1.9 0-.7.3-1.3.8-1.8.3-.4.7-.7 1.2-.8.5-.2.9-.2 1.3-.1s.8.3 1.1.6c.3.3.5.6.6 1s.1.8-.1 1.3c.5-.3 1-.5 1.5-.4.5 0 1 .3 1.4.7.6.6.9 1.2.9 2.1 0 .8-.3 1.6-.9 2.3-.6.6-1.2.9-1.9 1-.3-.2-1-.4-1.7-.8zM56.6 21.5l-1.1-2-3.6 1.9-.5-.9.9-7.4.8-.4 2.9 5.4 1.1-.6.5.9-1.1.6 1.1 2-1 .5zM55 18.6l-2-3.7-.6 5.1 2.6-1.4zM75.8 11.6l1.2-.3c.2.6.5 1 .9 1.2.4.2.8.3 1.2.2.5-.1 1-.4 1.3-.9.3-.5.4-1.1.2-1.8-.1-.6-.4-1.1-.9-1.4-.4-.3-1-.4-1.5-.3-.4.1-.7.2-.9.4-.3.3-.5.5-.6.8l-1.1.1-.1-4.9 4.6-.9.2 1.1-3.7.7v2.6c.5-.5 1-.8 1.6-.9.8-.2 1.5 0 2.2.4.7.4 1.1 1.1 1.3 2 .2.8.1 1.6-.3 2.3-.4.9-1.2 1.4-2.2 1.6-.8.2-1.6.1-2.2-.3-.5-.4-.9-1-1.2-1.7zM105.4 12.2l-1.2-.1.7-7.3c-.3.2-.7.5-1.2.7-.5.2-.9.4-1.3.5l.1-1.1c.7-.2 1.3-.6 1.8-.9s.9-.8 1.1-1.2l.7.1-.7 9.3zM109 7.9c.2-1.1.5-2 .8-2.6.3-.6.8-1.1 1.3-1.4.5-.3 1.1-.4 1.8-.2.5.1.9.3 1.3.5.3.3.6.6.8 1 .2.4.3.9.3 1.5s0 1.3-.2 2.2c-.2 1.1-.5 1.9-.8 2.6-.3.6-.8 1.1-1.3 1.4s-1.1.4-1.8.2c-.9-.2-1.5-.6-1.9-1.3-.5-.8-.6-2.1-.3-3.9zm1.2.2c-.3 1.5-.3 2.6 0 3.1.3.6.7.9 1.2 1s1-.1 1.5-.5.8-1.4 1.1-2.9c.3-1.5.3-2.6 0-3.1-.3-.6-.7-.9-1.2-1-.5-.1-1 .1-1.4.4-.6.5-1 1.5-1.2 3zM135.8 21.5l-1-.5 3.4-6.6c-.4.1-.8.2-1.3.2h-1.4l.5-1c.7 0 1.4 0 2-.2.6-.2 1.1-.4 1.5-.7l.7.3-4.4 8.5zM139.6 20.8l1.1.6c-.2.5-.3 1-.2 1.5.1.4.4.8.8 1 .5.3 1 .4 1.5.2s1-.5 1.4-1.1c.3-.6.5-1.1.4-1.6s-.4-.9-.9-1.3c-.3-.2-.6-.3-1-.3-.3 0-.7 0-.9.2l-.8-.7 3.3-3.6 4 2.5-.6.9-3.2-2-1.8 1.9c.7 0 1.3.1 1.8.4.7.4 1.1 1 1.3 1.8.2.8 0 1.6-.4 2.3-.5.7-1.1 1.2-1.8 1.5-.9.3-1.8.2-2.7-.3-.7-.5-1.2-1-1.4-1.7-.3-.8-.2-1.5.1-2.2zM162.7 42.1l-.8.7-4.1-4.7c.2-.2.4-.3.7-.4.4-.2.9-.2 1.4-.3s1.2.1 2.1.2c1.3.2 2.3.3 2.9.2.6-.1 1.1-.2 1.4-.5.3-.3.5-.7.5-1.1 0-.5-.1-.9-.5-1.3s-.8-.6-1.3-.7-.9.1-1.4.5l-.7-1c.7-.5 1.4-.7 2.1-.6.7.1 1.3.5 1.9 1.1.6.7.9 1.4.8 2.1 0 .7-.3 1.3-.9 1.8-.3.2-.6.4-1 .6s-.8.2-1.4.2c-.5 0-1.3-.1-2.4-.2-.9-.1-1.5-.2-1.8-.2h-.8l3.3 3.6zM166.2 40.9c.9-.7 1.7-1.1 2.4-1.3.7-.2 1.3-.3 1.9-.1.6.1 1 .5 1.5 1 .3.4.5.8.5 1.3.1.4 0 .9-.1 1.3-.2.4-.4.9-.8 1.3s-.9.9-1.7 1.5c-.9.7-1.7 1.1-2.4 1.3-.7.2-1.3.3-1.9.1-.6-.1-1.1-.5-1.5-1-.5-.7-.7-1.5-.5-2.3.4-1.1 1.2-2.1 2.6-3.1zm.7.9c-1.2.9-2 1.7-2.2 2.3s-.1 1.1.2 1.5.8.6 1.4.6c.6 0 1.6-.5 2.8-1.4 1.2-.9 2-1.7 2.2-2.3.2-.6.1-1.1-.2-1.5-.3-.4-.7-.6-1.3-.6-.7 0-1.6.5-2.9 1.4zM178.6 67.7l.5 1.1c-.6.3-1 .7-1.2 1.1-.2.4-.2.8-.1 1.2.2.5.5.9.9 1.1.5.2 1 .3 1.5.1.5-.2.9-.5 1.1-.9.2-.4.3-.9.1-1.4-.1-.2-.2-.5-.4-.7l1-.2v.2c.1.5.4.9.8 1.2.4.3.8.4 1.3.2.4-.1.7-.4.9-.7.2-.4.2-.8.1-1.2-.1-.4-.4-.7-.7-.9-.4-.2-.8-.3-1.4-.2l-.1-1.2c.8-.1 1.5 0 2 .4.6.4.9.9 1.2 1.6.2.5.2 1 .1 1.5s-.3.9-.6 1.2c-.3.3-.6.6-1.1.7-.4.1-.8.1-1.2 0-.4-.1-.7-.3-1-.7 0 .6-.1 1.1-.4 1.5-.3.4-.7.7-1.3.9-.8.2-1.5.2-2.3-.2-.7-.4-1.2-1-1.5-1.9-.2-.8-.2-1.5.1-2.2.5-.8 1-1.3 1.7-1.6zM182.8 74.3c1.1-.2 2-.3 2.7-.2.7.1 1.3.3 1.8.7.5.4.8.9.9 1.5.1.5.1.9 0 1.4-.1.4-.3.8-.7 1.1-.3.3-.7.6-1.2.9-.5.3-1.2.5-2.1.7-1.1.2-2 .3-2.7.2-.7-.1-1.3-.3-1.8-.7-.5-.4-.8-.9-.9-1.6-.2-.9 0-1.7.5-2.3.6-.8 1.8-1.3 3.5-1.7zm.3 1.2c-1.5.3-2.5.7-2.9 1.2-.4.5-.6 1-.5 1.5.1.5.5.9 1 1.1.6.2 1.6.2 3.1-.1 1.5-.3 2.5-.7 2.9-1.2.4-.5.6-1 .5-1.5-.1-.5-.4-.9-.9-1.1-.6-.3-1.7-.3-3.2.1zM180.2 107.2l2.2.3.5-4.1 1.1.1 5.5 5-.1.9-6.1-.7-.2 1.3-1.1-.1.2-1.3-2.2-.3.2-1.1zm3.3.4l4.2.5-3.9-3.4-.3 2.9zM184.3 111.6c1.1.2 1.9.5 2.6.9.6.4 1.1.8 1.3 1.3.3.5.3 1.1.2 1.8-.1.5-.3.9-.6 1.2-.3.3-.6.6-1.1.7-.4.2-.9.3-1.5.3s-1.3-.1-2.2-.2c-1.1-.2-1.9-.5-2.5-.9s-1.1-.8-1.3-1.3c-.3-.5-.3-1.1-.2-1.8.2-.9.6-1.5 1.4-1.9.9-.5 2.2-.5 3.9-.1zm-.2 1.1c-1.5-.3-2.6-.3-3.1-.1-.6.3-.9.6-1 1.2s.1 1 .5 1.5 1.4.8 2.9 1.2c1.5.3 2.6.3 3.1.1.6-.3.9-.6 1-1.2.1-.5 0-1-.4-1.4-.5-.6-1.5-1-3-1.3zM170.7 141.8l-.6 1.1c-.5-.3-1-.3-1.5-.2s-.8.4-1 .7c-.3.5-.4 1-.3 1.5.1.6.5 1 1.1 1.4.5.4 1.1.5 1.6.4.5-.1.9-.4 1.3-.9.2-.3.3-.6.3-1 0-.3 0-.7-.2-1l.7-.8 3.5 3.4-2.6 3.9-.9-.6 2.1-3.1-1.8-1.8c0 .7-.1 1.3-.5 1.8-.5.7-1.1 1.1-1.9 1.3-.8.2-1.6 0-2.3-.5-.7-.5-1.2-1.1-1.4-1.8-.3-.9-.2-1.8.4-2.7.5-.7 1.1-1.2 1.8-1.3.8-.2 1.5-.1 2.2.2zM168.3 149.3c.9.7 1.5 1.3 1.9 1.9.4.6.6 1.2.6 1.8 0 .6-.2 1.1-.6 1.7-.3.4-.7.7-1.1.9-.4.2-.8.2-1.3.2s-.9-.2-1.5-.4c-.5-.2-1.1-.6-1.9-1.2-.9-.7-1.5-1.3-1.9-1.9-.4-.6-.6-1.2-.6-1.8s.2-1.1.6-1.7c.6-.7 1.3-1.1 2.1-1.1 1.1-.1 2.3.5 3.7 1.6zm-.7.9c-1.2-1-2.1-1.5-2.8-1.5-.6 0-1.1.2-1.4.6-.3.4-.4.9-.2 1.5s.9 1.4 2.1 2.3c1.2 1 2.1 1.5 2.8 1.5s1.1-.2 1.4-.6c.3-.4.4-.9.3-1.4-.3-.6-1-1.4-2.2-2.4z"/></svg>