<svg xmlns="http://www.w3.org/2000/svg" xmlns:xlink="http://www.w3.org/1999/xlink" width="118.9" height="151.2" viewBox="192 114.7 118.9 151.2" enable-background="new 192 114.7 118.9 151.2"><style type="text/css">.st0{fill:#FFFFFF;} .st1{fill:none;stroke:#000000;stroke-width:65.65;stroke-linecap:round;stroke-linejoin:round;stroke-miterlimit:3;}</style><symbol id="hand" viewBox="-364.3 -463.1 728.6 926.3"><g id="Layer_3_1_"><path class="st0" d="M209.5 105.9v-1.3l-.1-68.4.1-15.5-.1 15.5.1 68.4v34.099999999999994l8.4-1c9.2-.7 22.7-1 40.6-1 30.8 0 52.3-13.7 64.3-41 3.8-8.5 6.4-17.9 7.8-28.2.7-5.1 1-9.4 1-12.8l-.3-51c-6.2-121.4-18.1-214.5-35.8-279.2-17.6-64.7-33.3-116-47-153.8l-364-1c-36.2 173-108.2 307.6-216 404 24.7 114.7 82.4 116.1 173 4v373c.1 3 .4 6.5.9 10.6 1.3 10.3 3.7 19.7 7.1 28.2 10.4 25.5 28.3 39.1 53.9 40.8 25.6-1.7 43.6-15.3 54-40.8 3.5-8.5 5.8-17.9 7.2-28.2.5-4.1.8-7.6.9-10.6v-242.1 117h8.4c9.2-.7 22.7-1 40.6-1 30.8 0 52.3-13.7 64.3-41 3.8-8.5 6.3-17.9 7.8-28.2.6-4.1.9-7.6 1-10.6v-75 75 42h8.4c9.2-.7 22.7-1 40.6-1 30.8 0 52.3-13.7 64.3-41 3.8-8.5 6.4-17.9 7.8-28.2.3-4.2.7-7.7.8-10.7zm-.5-94.2l.3 24.5-.3-24.5z"/><path class="st1" d="M209.5 105.9c-.1 3-.4 6.6-1 10.7-1.4 10.3-4 19.7-7.8 28.2-12 27.3-33.4 41-64.3 41-17.9 0-31.4.3-40.6 1h-8.4v-117m.1 74.9c-.1 3-.4 6.6-1 10.6-1.4 10.3-4 19.7-7.8 28.2-12 27.3-33.4 41-64.3 41-17.9 0-31.4.3-40.6 1h-8.4v-117m.1 117.1v125.1c-.1 3-.4 6.5-.9 10.6-1.3 10.3-3.7 19.7-7.2 28.2-10.4 25.5-28.3 39.1-53.9 40.8-25.6-1.7-43.5-15.3-53.9-40.8-3.5-8.5-5.9-17.9-7.1-28.2-.5-4.1-.9-7.6-.9-10.6v-373c-90.6 112.1-148.3 110.8-172.9-4 107.8-96.4 179.8-231 215.9-404l364 1c13.7 37.8 29.4 89.1 47 153.8 17.7 64.7 29.6 157.8 35.8 279.2l.3 51c0 3.4-.3 7.7-1 12.8-1.4 10.3-4 19.7-7.8 28.2-12 27.3-33.4 41-64.3 41-17.9 0-31.4.3-40.6 1l-8.4 1v-34.099999999999994l-.1-68.4.1-15.5m-.6-9l.3 24.5"/></g></symbol><use xlink:href="#hand" width="728.6" height="926.3" x="-364.3" y="-463.1" transform="matrix(.163 0 0 -.163 251.509 190.302)" overflow="visible"/></svg>