<svg xmlns="http://www.w3.org/2000/svg" width="117.4" height="111" viewBox="0 0 117.4 111"><style type="text/css">.st0{fill:url(#SVGID_1_);} .st1{fill:url(#SVGID_2_);} .st2{fill:url(#SVGID_3_);} .st3{fill:url(#SVGID_4_);} .st4{fill:none;stroke:#FFF1C9;stroke-width:0.5;stroke-miterlimit:10;stroke-dasharray:2.003,1.0015;} .st5{fill:none;stroke:#FFF1C9;stroke-width:0.5;stroke-miterlimit:10;stroke-dasharray:0.5378;} .st6{fill:none;stroke:#FFF1C9;stroke-width:0.5;stroke-miterlimit:10;} .st7{fill:none;stroke:#FFF1C9;stroke-width:0.5;stroke-miterlimit:10;stroke-dasharray:1.9979,0.9989;} .st8{fill:none;stroke:#FFF1C9;stroke-width:0.5;stroke-miterlimit:10;stroke-dasharray:2.0174,1.0087;} .st9{opacity:0.75;fill:#A7742A;} .st10{fill:url(#SVGID_5_);} .st11{fill:url(#SVGID_6_);} .st12{opacity:0.91;fill:#875F26;} .st13{fill:url(#SVGID_7_);} .st14{fill:url(#SVGID_8_);} .st15{fill:#EAEAEC;} .st16{opacity:0.75;fill:#7E5722;} .st17{fill:url(#SVGID_9_);} .st18{fill:url(#SVGID_10_);} .st19{fill:url(#SVGID_11_);} .st20{opacity:0.8;fill:#725B3D;} .st21{fill:url(#SVGID_12_);} .st22{fill:#F1CE58;} .st23{fill:#231F20;} .st24{fill:url(#SVGID_13_);} .st25{fill:url(#SVGID_14_);} .st26{fill:url(#SVGID_15_);} .st27{fill:url(#SVGID_16_);} .st28{fill:url(#SVGID_17_);} .st29{fill:url(#SVGID_18_);} .st30{fill:url(#SVGID_19_);} .st31{fill:url(#SVGID_20_);} .st32{fill:url(#SVGID_21_);} .st33{fill:url(#SVGID_22_);} .st34{fill:url(#SVGID_23_);} .st35{fill:url(#SVGID_24_);} .st36{fill:url(#SVGID_25_);} .st37{fill:url(#SVGID_26_);} .st38{fill:url(#SVGID_27_);} .st39{fill:url(#SVGID_28_);} .st40{fill:url(#SVGID_29_);} .st41{fill:url(#SVGID_30_);} .st42{fill:url(#SVGID_31_);} .st43{fill:url(#SVGID_32_);} .st44{fill:url(#SVGID_33_);} .st45{fill:url(#SVGID_34_);} .st46{opacity:0.59;} .st47{fill:#A7872F;} .st48{fill:#FCE8AB;} .st49{fill:url(#SVGID_35_);} .st50{fill:#808184;} .st51{fill:#4B4B4D;} .st52{fill:#BEBFC1;} .st53{fill:url(#SVGID_36_);} .st54{fill:url(#SVGID_37_);} .st55{fill:url(#SVGID_38_);} .st56{fill:url(#SVGID_39_);} .st57{fill:url(#SVGID_40_);} .st58{fill:url(#SVGID_41_);} .st59{fill:url(#SVGID_42_);} .st60{fill:url(#SVGID_43_);} .st61{fill:url(#SVGID_44_);} .st62{fill:url(#SVGID_45_);} .st63{fill:#E4983F;} .st64{fill:url(#SVGID_46_);} .st65{fill:url(#SVGID_47_);} .st66{fill:url(#SVGID_48_);}</style><linearGradient id="SVGID_1_" gradientUnits="userSpaceOnUse" x1="104.07" y1="29.031" x2="103.428" y2="108.24"><stop offset="0" stop-color="#FFCC4C"/><stop offset=".382" stop-color="#FDCA4B"/><stop offset=".613" stop-color="#F6C147"/><stop offset=".803" stop-color="#ECB441"/><stop offset=".971" stop-color="#DFA239"/><stop offset="1" stop-color="#DC9F38"/></linearGradient><path class="st0" d="M116.4 24.6c-7.4 4.2-14.9 8.1-22.3 12.3-5.1 24.1.2 48.3-3.2 73 .8.1 1.2.2 1.2.2 3.7 1.3 22.1-10.2 22.4-17.6l2.3-66c-.1-.6-.2-1.3-.4-1.9z"/><linearGradient id="SVGID_2_" gradientUnits="userSpaceOnUse" x1="1.658" y1="21.078" x2="108.643" y2="21.078"><stop offset="0" stop-color="#FFD366"/><stop offset=".38" stop-color="#FED163"/><stop offset=".609" stop-color="#F9CA5C"/><stop offset=".798" stop-color="#F4BD4F"/><stop offset=".964" stop-color="#ECAD3E"/><stop offset="1" stop-color="#EAA93A"/></linearGradient><path class="st1" d="M107.3 17.8l-77-6.6c-4.4-.4-30.4 6.6-28.5 11.2 0 0 0 1.7.1 4.5 27.8.4 56.3-4.3 82.7 4 7.9-4.4 15.9-9 24.1-12.9-.5-.1-1-.2-1.4-.2z"/><linearGradient id="SVGID_3_" gradientUnits="userSpaceOnUse" x1="98.1" y1="22.106" x2="105.358" y2="32.033"><stop offset="0" stop-color="#FFE39C"/><stop offset=".305" stop-color="#FFE39A"/><stop offset=".488" stop-color="#FFE193"/><stop offset=".64" stop-color="#FFDE88"/><stop offset=".774" stop-color="#FFDA78"/><stop offset=".896" stop-color="#FFD560"/><stop offset="1" stop-color="#FFD042"/></linearGradient><path class="st2" d="M94.7 33.9c-.2 1-.5 2-.7 3 7.4-4.1 15-8.1 22.3-12.3-.8-3.1-3.9-5.8-7.8-6.6-6.8 3.3-13.5 7-20.2 10.8 2.9 2.1 4.3 5.5 4 9 .5-.3 1.1-.6 1.6-.9.4-1 .6-2 .8-3z"/><linearGradient id="SVGID_4_" gradientUnits="userSpaceOnUse" x1="53.019" y1="3.089" x2="45.057" y2="114.03"><stop offset="0" stop-color="#ECAA45"/><stop offset=".465" stop-color="#E9A844"/><stop offset=".632" stop-color="#E29F40"/><stop offset=".752" stop-color="#D6933A"/><stop offset=".848" stop-color="#C78434"/><stop offset=".929" stop-color="#B6712D"/><stop offset=".935" stop-color="#B4702C"/><stop offset=".965" stop-color="#A66128"/><stop offset="1" stop-color="#914C22"/></linearGradient><path class="st3" d="M86.3 110.2L9.7 95.1c-4-.8-7.3-4.2-7.7-7.8v-.5l-.7-61.9c0-3.9 3.4-6.7 7.7-6.3l78 7.1c5.3.5 9.7 4.5 9.7 8.9l-.8 70c-.1 4-4.4 6.6-9.6 5.6z"/><path class="st4" d="M83.7 107L12.5 93c-3.7-.7-6.8-3.9-7.1-7.3v-.5l-.8-57.6c0-3.6 3.2-6.3 7.1-5.9l72.7 6.6c5 .4 9.1 4.2 9 8.2l-.8 65.2c0 3.9-4.1 6.3-8.9 5.3z"/><path class="st5" d="M.3 89v-.5"/><path class="st6" d="M7.5 16.8h1"/><path class="st7" d="M9.5 16.9l80 7.2c5.6.5 10.2 4.7 10.2 9.3l-.8 72"/><path class="st6" d="M98.8 105.9v1M23.1 11.6l1 .1"/><path class="st8" d="M25.1 11.8l80 7.2c5.6.5 10.2 4.7 10.2 9.3l-2.5 67.5"/><path class="st6" d="M112.7 96.3v1"/><path class="st9" d="M81.7 25.8c-.1.8.2 2 .6 2.7 1.9 3.2 3.9 6.3 6.1 9.3 1.8 2.5 3.8 5.8 7.1 6.3h.5c2-11.5.9-22.2-14.3-18.3zM98 36.8c.1-2 .1-4 0-6 0-1-.1-2.1-.6-2.9-.4-.8-1.1-1.4-1.9-1.9-2-1.2-4.5-1.4-6.8-1.5-1.1-.1-2.1-.1-3.2-.2-.8-.1-1.5-.1-2.3.1-.7.2-1.3.7-1.5 1.1-.1.1-.1.2-.1.3 5.8.4 11.3 1.2 12.8 3.1 1.5 1.9 1.3 10.4 1.6 15.2.4 0 .8-.1 1.1-.3.5-.3.8-.9.9-1.5.2-1.8 0-3.7 0-5.5z"/><linearGradient id="SVGID_5_" gradientUnits="userSpaceOnUse" x1="103.84" y1="26.437" x2="83.053" y2="37.753"><stop offset="0" stop-color="#F4F5F5"/><stop offset=".273" stop-color="#F0F1F1"/><stop offset=".438" stop-color="#E4E4E4"/><stop offset=".574" stop-color="#D3D2D2"/><stop offset=".694" stop-color="#BDBCBC"/><stop offset=".804" stop-color="#A3A1A2"/><stop offset=".905" stop-color="#878585"/><stop offset="1" stop-color="#6A6A6A"/></linearGradient><path class="st10" d="M81.9 25.3c-.1.8.2 2 .6 2.7 1.9 3.2 3.9 6.3 6.1 9.3 1.8 2.5 3.8 5.8 7.1 6.3h.5c2.1-11.5 1-22.2-14.3-18.3z"/><radialGradient id="SVGID_6_" cx="95.888" cy="28.19" r="13.569" gradientUnits="userSpaceOnUse"><stop offset="0" stop-color="#CDCFD0"/><stop offset=".237" stop-color="#C2C3C4"/><stop offset=".667" stop-color="#B4B5B5"/><stop offset="1" stop-color="#B0B0B0"/></radialGradient><path class="st11" d="M98.3 36.3c.1-2 .1-4 0-6 0-1-.1-2.1-.6-2.9-.4-.8-1.1-1.4-1.9-1.9-2-1.2-4.5-1.4-6.8-1.5-1.1-.1-2.1-.1-3.2-.2-.8-.1-1.5-.1-2.3.1-.7.2-1.3.7-1.5 1.1-.1.1-.1.2-.1.3 5.8.4 11.3 1.2 12.8 3.1 1.5 1.9 1.3 10.4 1.6 15.2.4 0 .8-.1 1.1-.3.5-.3.8-.9.9-1.5.2-1.7 0-3.7 0-5.5z"/><path class="st12" d="M95.5 99.2c-.5-.1-1.1.1-1.5.3-1.9.7-3.6 2.1-5.3 3.2-2.3 1.4-4.7 2.9-7 4.3-.6.4-1.3.9-1.3 1.6v.5c5.4 1.5 11.3 2.2 14-1 1.6-2 1.4-5.7 1.1-8.9zM97.4 100.8c-.1-.6-.4-1.2-1-1.4-.7-.3-1.5-.2-2-.1 0 3 .8 7.7.2 8.2-3 2.6-8.5 2.4-13.7 1.2 0 .1.1.2.1.2.3.5 1.5.6 2.1.8 3.6.8 8.1 1.3 11.1.8 1.9-.3 5.5-2.2 5.1-3.3-.2-1.1-1.3-3.5-1.9-6.4z"/><linearGradient id="SVGID_7_" gradientUnits="userSpaceOnUse" x1="95.475" y1="114.469" x2="83.859" y2="97.711"><stop offset="0" stop-color="#F4F5F5"/><stop offset=".273" stop-color="#F0F1F1"/><stop offset=".438" stop-color="#E4E4E4"/><stop offset=".574" stop-color="#D3D2D2"/><stop offset=".694" stop-color="#BDBCBC"/><stop offset=".804" stop-color="#A3A1A2"/><stop offset=".905" stop-color="#878585"/><stop offset="1" stop-color="#6A6A6A"/></linearGradient><path class="st13" d="M96 99.6c-.5-.2-1-.1-1.5 0-1.9.7-3.6 2.2-5.3 3.3-2.3 1.4-4.7 2.9-7 4.3-.6.4-1.3.9-1.3 1.6v.2c5.4 1.5 11.3 2.4 14-.8 1.7-1.8 1.4-5.3 1.1-8.6z"/><linearGradient id="SVGID_8_" gradientUnits="userSpaceOnUse" x1="110.803" y1="87.719" x2="86.995" y2="111.838"><stop offset="0" stop-color="#F4F5F5"/><stop offset=".273" stop-color="#F0F1F1"/><stop offset=".438" stop-color="#E4E4E4"/><stop offset=".574" stop-color="#D3D2D2"/><stop offset=".694" stop-color="#BDBCBC"/><stop offset=".804" stop-color="#A3A1A2"/><stop offset=".905" stop-color="#878585"/><stop offset="1" stop-color="#6A6A6A"/></linearGradient><path class="st14" d="M97.3 101.2c-.1-.6-.5-1.1-1-1.4-.1-.1-.2-.1-.4-.2 0 3-.8 7.7-1.4 8.2-3 2.6-8.5 2.4-13.7 1.2 0 .1.1.2.1.2.3.5 1.5.6 2.1.8 3.6.8 8.1 1.3 11.1.8 1.9-.3 5.6-1.9 5.1-3.3-.3-1-1.3-3.4-1.9-6.3z"/><path class="st15" d="M13.2 19c0-.1 0-.1 0 0-.2-.9-1.1-1.4-1.9-1.7-1.8-.7-3.7-.5-5.5.2-.5.2-.9.4-1.4.7-1 .6-2.1 1.4-2.9 2.3-.7.9-.7 2.2-.8 3.3v.1c2.6-4.7 7.6-5.3 12.5-4.9z"/><path class="st16" d="M1.1 24.2C1 26.3 1 28.4.9 30.5c0 .9.1 2 .9 2.4.5.2 1.1 0 1.5-.3.8-.6 1.5-1.7 2.1-2.5.9-1.1 1.8-2.1 2.7-3.2 1.1-1.3 2.1-2.6 3.2-3.8.8-1 2.6-2.7 2-4.1-4.9-.5-9.7.5-12.2 5.2z"/><linearGradient id="SVGID_9_" gradientUnits="userSpaceOnUse" x1="-3.922" y1="16.659" x2="9.931" y2="27.835"><stop offset="0" stop-color="#F4F5F5"/><stop offset=".273" stop-color="#F0F1F1"/><stop offset=".438" stop-color="#E4E4E4"/><stop offset=".574" stop-color="#D3D2D2"/><stop offset=".694" stop-color="#BDBCBC"/><stop offset=".804" stop-color="#A3A1A2"/><stop offset=".905" stop-color="#878585"/><stop offset="1" stop-color="#6A6A6A"/></linearGradient><path class="st17" d="M.8 23.9C.7 26 .7 28.1.6 30.2c0 .9.1 2 .9 2.4.5.2 1.1 0 1.5-.3.8-.6 1.5-1.7 2.1-2.5.9-1.1 1.8-2.1 2.6-3.2 1.1-1.3 2.1-2.6 3.2-3.8.8-1 2.5-2.3 2.2-3.8-4.8-.4-9.8.2-12.3 4.9z"/><path class="st12" d="M1.5 81.2c-.1 1 .1 2.2.1 2.8.1 3 .3 7.1 2.5 9.3 1 1 2.5 1.6 3.9 2 1.1.3 2.3.8 3.5.9 2.4.1 1.1-1.8.4-3.1-1.3-2.5-2.7-5-4.2-7.5-1.1-1.8-2.6-5.4-4.7-6.1-1.1-.3-1.4.6-1.5 1.7z"/><linearGradient id="SVGID_10_" gradientUnits="userSpaceOnUse" x1="-7.572" y1="96.674" x2="14.756" y2="82.913"><stop offset="0" stop-color="#F4F5F5"/><stop offset=".273" stop-color="#F0F1F1"/><stop offset=".438" stop-color="#E4E4E4"/><stop offset=".574" stop-color="#D3D2D2"/><stop offset=".694" stop-color="#BDBCBC"/><stop offset=".804" stop-color="#A3A1A2"/><stop offset=".905" stop-color="#878585"/><stop offset="1" stop-color="#6A6A6A"/></linearGradient><path class="st18" d="M.8 81.4c-.1 1 .1 2.2.1 2.8.1 3 .3 7.1 2.5 9.3 1 1 2.5 1.6 3.9 2 1.1.3 2.3.8 3.5.9 2.4.1 1.1-1.8.4-3.1-1.3-2.5-2.7-5-4.2-7.5-1.1-1.8-2.6-5.4-4.7-6.1-1.1-.4-1.5.5-1.5 1.7z"/><path class="st12" d="M109.2 101.6c.7-.4 5.2-3.2 5.4-4.8.1-1.2.2-2.9.2-4.5 0-.7 0-3.6-1-3.5-.6.1-1 1.2-1.3 1.6-1.1 1.8-2.1 3.7-3 5.5-.7 1.4-2.4 3.7-2 5.3.3.9 1 .8 1.7.4z"/><linearGradient id="SVGID_11_" gradientUnits="userSpaceOnUse" x1="119.35" y1="100.64" x2="109.032" y2="93.719"><stop offset="0" stop-color="#F4F5F5"/><stop offset=".273" stop-color="#F0F1F1"/><stop offset=".438" stop-color="#E4E4E4"/><stop offset=".574" stop-color="#D3D2D2"/><stop offset=".694" stop-color="#BDBCBC"/><stop offset=".804" stop-color="#A3A1A2"/><stop offset=".905" stop-color="#878585"/><stop offset="1" stop-color="#6A6A6A"/></linearGradient><path class="st19" d="M109.6 101.6c.7-.4 5.2-3.2 5.4-4.8.1-1.2.2-2.9.2-4.5 0-.7 0-3.6-1-3.5-.6.1-1 1.2-1.3 1.6-1.1 1.8-2.1 3.7-3 5.5-.7 1.4-2.4 3.7-2 5.3.3.9 1 .8 1.7.4z"/><path class="st20" d="M109.8 18c-1.4-.4-3.7-.7-4.4-.3s-1.5 1.2.8 3.2 5.3 4.6 6.4 7.7 1.1 4.2 1.5 4.7c.4.5 1.6 1.5 2.3.5s.8-6.7.4-8.2c-.4-1.5-1.1-3.4-2.7-5.1-1.5-1.5-4.3-2.5-4.3-2.5z"/><linearGradient id="SVGID_12_" gradientUnits="userSpaceOnUse" x1="127.316" y1="16.844" x2="106.866" y2="27.664"><stop offset="0" stop-color="#F4F5F5"/><stop offset=".273" stop-color="#F0F1F1"/><stop offset=".438" stop-color="#E4E4E4"/><stop offset=".574" stop-color="#D3D2D2"/><stop offset=".694" stop-color="#BDBCBC"/><stop offset=".804" stop-color="#A3A1A2"/><stop offset=".905" stop-color="#878585"/><stop offset="1" stop-color="#6A6A6A"/></linearGradient><path class="st21" d="M110.1 17.5c-1.4-.4-3.7-.7-4.4-.3-.6.4-1.5 1.2.8 3.2s5.3 4.6 6.4 7.7 1.1 4.2 1.5 4.7c.4.5 1.6 1.5 2.3.5.7-1 .8-6.7.4-8.2-.4-1.5-1.1-3.4-2.7-5.1-1.4-1.5-4.3-2.5-4.3-2.5z"/><path class="st9" d="M88.3 16.3c.3 0 .4.5.1.6-4 1.3-15.5 4.9-17.5 5.5-2.5.8-4.6 1-4.6 7.2s0 9.9.1 13.1c.1 5.6-7 5.2-7.1.5-.1-5.9 0-12.6 0-16.2 0-3.7 1.4-4.6 3.9-5.4 4.6-1.4 20.2-5.7 20.5-5.8.2 0 2.9.3 4.6.5z"/><path class="st22" d="M87.5 15.7c.3 0 .4.5.1.6-4 1.3-15.5 4.9-17.5 5.5-2.5.8-4.6 1-4.6 7.2s0 9.9.1 13.1c.1 5.6-7 5.2-7.1.5-.1-5.9 0-12.6 0-16.2 0-3.7 1.4-4.6 3.9-5.4 4.6-1.4 20.2-5.7 20.5-5.8.1 0 2.8.3 4.6.5z"/><path class="st9" d="M49.2 12.9s-17.3 5.7-19.7 6.5-3.1 1.6-3.1 7.8 0 8.1.1 11.4c.2 4-6.6 4.7-6.7 0-.2-5.9 0-8.7-.1-12.9-.1-5.9 1.4-6 5.7-7.2 4.6-1.3 19.1-5.4 19.4-5.5s4.4-.1 4.4-.1z"/><path class="st22" d="M48.4 12.5c.2 0 .2.3 0 .3-3.4 1.1-17.2 5.3-19.4 6-2.5.8-3.5 1.4-3.5 7.6s0 8.1.1 11.4c.2 4-6.6 4.7-6.7 0-.2-5.9 0-8.7-.1-12.9-.1-5.9 1.4-6 5.7-7.2 4.6-1.3 19.1-5.4 19.4-5.5.4-.2 3.1.1 4.5.3z"/><path class="st12" d="M21.6 97.4c-1-.2-2.2-.5-2.5-.5s-.2-.2-.3-1c-.1-.8-.1-3.2-.2-7.9s7.3-5.5 7.3.1.2 9.6.2 9.9c-.1.4-.3.2-.8.1-.4-.1-3.7-.7-3.7-.7z"/><path class="st22" d="M20.9 97.8c-1-.2-2.2-.5-2.5-.5-.3 0-.2-.2-.3-1-.1-.8-.1-3.2-.2-7.9s7.3-5.5 7.3.1c.1 5.6.2 9.6.2 9.9s-.3.2-.8.1c-.4-.2-3.7-.7-3.7-.7z"/><path class="st12" d="M61.7 105.5c-1-.2-2.2-.5-2.5-.5s-.2-.2-.3-1c-.1-.8-.1-3.2-.2-7.9s7.3-5.5 7.3.1c.1 5.6.2 9.6.2 9.9-.1.4-.3.2-.8.1s-3.7-.7-3.7-.7z"/><path class="st22" d="M61 105.7c-1-.2-2.2-.5-2.5-.5s-.2-.2-.3-1c-.1-.8-.1-3.2-.2-7.9s7.3-5.5 7.3.1c.1 5.6.2 9.6.2 9.9-.1.4-.3.2-.8.1-.4-.1-3.7-.7-3.7-.7z"/><ellipse class="st23" cx="22.3" cy="37.2" rx="1.1" ry="1.2"/><radialGradient id="SVGID_13_" cx="21.777" cy="36.788" r="1.612" fx="21.723" fy="36.795" gradientUnits="userSpaceOnUse"><stop offset="0" stop-color="#fff"/><stop offset=".124" stop-color="#FBFBFB"/><stop offset=".25" stop-color="#EFEFEF"/><stop offset=".376" stop-color="#DBDBDB"/><stop offset=".502" stop-color="#BEBEBE"/><stop offset=".629" stop-color="#9A9A9A"/><stop offset=".756" stop-color="#6D6D6D"/><stop offset=".881" stop-color="#393939"/><stop offset="1"/></radialGradient><ellipse class="st24" cx="22.2" cy="37" rx="1.1" ry="1.2"/><ellipse class="st23" cx="62.3" cy="42.2" rx="1.1" ry="1.2"/><radialGradient id="SVGID_14_" cx="61.87" cy="41.714" r="1.445" gradientUnits="userSpaceOnUse"><stop offset="0" stop-color="#fff"/><stop offset=".124" stop-color="#FBFBFB"/><stop offset=".25" stop-color="#EFEFEF"/><stop offset=".376" stop-color="#DBDBDB"/><stop offset=".502" stop-color="#BEBEBE"/><stop offset=".629" stop-color="#9A9A9A"/><stop offset=".756" stop-color="#6D6D6D"/><stop offset=".881" stop-color="#393939"/><stop offset="1"/></radialGradient><ellipse class="st25" cx="62.2" cy="42" rx="1.1" ry="1.2"/><ellipse class="st23" cx="21.6" cy="88.9" rx="1.1" ry="1.2"/><radialGradient id="SVGID_15_" cx="21.446" cy="88.652" r="1.304" fx="20.572" fy="88.638" gradientTransform="matrix(.726 .688 -.738 .778 71.299 4.88)" gradientUnits="userSpaceOnUse"><stop offset="0" stop-color="#fff"/><stop offset=".133" stop-color="#FBFBFB"/><stop offset=".259" stop-color="#F0F0F0"/><stop offset=".383" stop-color="#DCDCDC"/><stop offset=".506" stop-color="#C1C1C1"/><stop offset=".627" stop-color="#9E9E9E"/><stop offset=".748" stop-color="#747474"/><stop offset=".868" stop-color="#414141"/><stop offset=".985" stop-color="#080808"/><stop offset="1"/></radialGradient><ellipse class="st26" cx="21.5" cy="88.7" rx="1.1" ry="1.2"/><radialGradient id="SVGID_16_" cx="3.35" cy="83.314" r=".819" fx="2.802" fy="83.305" gradientTransform="matrix(.726 .688 -.738 .778 62.398 16.146)" gradientUnits="userSpaceOnUse"><stop offset="0" stop-color="#fff"/><stop offset=".133" stop-color="#FBFBFB"/><stop offset=".259" stop-color="#F0F0F0"/><stop offset=".383" stop-color="#DCDCDC"/><stop offset=".506" stop-color="#C1C1C1"/><stop offset=".627" stop-color="#9E9E9E"/><stop offset=".748" stop-color="#747474"/><stop offset=".868" stop-color="#414141"/><stop offset=".985" stop-color="#080808"/><stop offset="1"/></radialGradient><ellipse class="st27" cx="3.4" cy="83.4" rx=".7" ry=".7"/><radialGradient id="SVGID_17_" cx="9.302" cy="93.971" r=".819" fx="8.753" fy="93.962" gradientTransform="matrix(.726 .688 -.738 .778 71.894 14.412)" gradientUnits="userSpaceOnUse"><stop offset="0" stop-color="#fff"/><stop offset=".133" stop-color="#FBFBFB"/><stop offset=".259" stop-color="#F0F0F0"/><stop offset=".383" stop-color="#DCDCDC"/><stop offset=".506" stop-color="#C1C1C1"/><stop offset=".627" stop-color="#9E9E9E"/><stop offset=".748" stop-color="#747474"/><stop offset=".868" stop-color="#414141"/><stop offset=".985" stop-color="#080808"/><stop offset="1"/></radialGradient><ellipse class="st28" cx="9.4" cy="94" rx=".7" ry=".7"/><radialGradient id="SVGID_18_" cx="83.948" cy="108.031" r=".819" fx="83.399" fy="108.022" gradientTransform="matrix(.726 .688 -.738 .778 102.738 -33.825)" gradientUnits="userSpaceOnUse"><stop offset="0" stop-color="#fff"/><stop offset=".133" stop-color="#FBFBFB"/><stop offset=".259" stop-color="#F0F0F0"/><stop offset=".383" stop-color="#DCDCDC"/><stop offset=".506" stop-color="#C1C1C1"/><stop offset=".627" stop-color="#9E9E9E"/><stop offset=".748" stop-color="#747474"/><stop offset=".868" stop-color="#414141"/><stop offset=".985" stop-color="#080808"/><stop offset="1"/></radialGradient><ellipse class="st29" cx="84" cy="108.1" rx=".7" ry=".7"/><radialGradient id="SVGID_19_" cx="94.049" cy="40.365" r=".819" fx="93.5" fy="40.356" gradientTransform="matrix(.726 .688 -.738 .778 55.576 -55.759)" gradientUnits="userSpaceOnUse"><stop offset="0" stop-color="#fff"/><stop offset=".133" stop-color="#FBFBFB"/><stop offset=".259" stop-color="#F0F0F0"/><stop offset=".383" stop-color="#DCDCDC"/><stop offset=".506" stop-color="#C1C1C1"/><stop offset=".627" stop-color="#9E9E9E"/><stop offset=".748" stop-color="#747474"/><stop offset=".868" stop-color="#414141"/><stop offset=".985" stop-color="#080808"/><stop offset="1"/></radialGradient><ellipse class="st30" cx="94.1" cy="40.4" rx=".7" ry=".7"/><radialGradient id="SVGID_20_" cx="85.345" cy="28.114" r=".819" fx="84.796" fy="28.105" gradientTransform="matrix(.726 .688 -.738 .778 44.149 -52.484)" gradientUnits="userSpaceOnUse"><stop offset="0" stop-color="#fff"/><stop offset=".133" stop-color="#FBFBFB"/><stop offset=".259" stop-color="#F0F0F0"/><stop offset=".383" stop-color="#DCDCDC"/><stop offset=".506" stop-color="#C1C1C1"/><stop offset=".627" stop-color="#9E9E9E"/><stop offset=".748" stop-color="#747474"/><stop offset=".868" stop-color="#414141"/><stop offset=".985" stop-color="#080808"/><stop offset="1"/></radialGradient><ellipse class="st31" cx="85.4" cy="28.2" rx=".7" ry=".7"/><radialGradient id="SVGID_21_" cx="10.156" cy="21.318" r=".819" fx="9.608" fy="21.309" gradientTransform="matrix(.726 .688 -.738 .778 18.516 -2.266)" gradientUnits="userSpaceOnUse"><stop offset="0" stop-color="#fff"/><stop offset=".133" stop-color="#FBFBFB"/><stop offset=".259" stop-color="#F0F0F0"/><stop offset=".383" stop-color="#DCDCDC"/><stop offset=".506" stop-color="#C1C1C1"/><stop offset=".627" stop-color="#9E9E9E"/><stop offset=".748" stop-color="#747474"/><stop offset=".868" stop-color="#414141"/><stop offset=".985" stop-color="#080808"/><stop offset="1"/></radialGradient><ellipse class="st32" cx="10.2" cy="21.4" rx=".7" ry=".7"/><radialGradient id="SVGID_22_" cx="3.422" cy="29.368" r=".819" fx="2.873" fy="29.359" gradientTransform="matrix(.726 .688 -.738 .778 22.61 4.15)" gradientUnits="userSpaceOnUse"><stop offset="0" stop-color="#fff"/><stop offset=".133" stop-color="#FBFBFB"/><stop offset=".259" stop-color="#F0F0F0"/><stop offset=".383" stop-color="#DCDCDC"/><stop offset=".506" stop-color="#C1C1C1"/><stop offset=".627" stop-color="#9E9E9E"/><stop offset=".748" stop-color="#747474"/><stop offset=".868" stop-color="#414141"/><stop offset=".985" stop-color="#080808"/><stop offset="1"/></radialGradient><ellipse class="st33" cx="3.5" cy="29.4" rx=".7" ry=".7"/><radialGradient id="SVGID_23_" cx="96.11" cy="102.192" r=".819" fx="95.561" fy="102.183" gradientTransform="matrix(.546 .688 -.556 .778 100.974 -43.485)" gradientUnits="userSpaceOnUse"><stop offset="0" stop-color="#fff"/><stop offset=".133" stop-color="#FBFBFB"/><stop offset=".259" stop-color="#F0F0F0"/><stop offset=".383" stop-color="#DCDCDC"/><stop offset=".506" stop-color="#C1C1C1"/><stop offset=".627" stop-color="#9E9E9E"/><stop offset=".748" stop-color="#747474"/><stop offset=".868" stop-color="#414141"/><stop offset=".985" stop-color="#080808"/><stop offset="1"/></radialGradient><ellipse class="st34" cx="96.8" cy="102.3" rx=".5" ry=".7"/><radialGradient id="SVGID_24_" cx="97.823" cy="107.422" r=".819" fx="97.274" fy="107.413" gradientTransform="matrix(.546 .688 -.556 .778 104.233 -43.505)" gradientUnits="userSpaceOnUse"><stop offset="0" stop-color="#fff"/><stop offset=".133" stop-color="#FBFBFB"/><stop offset=".259" stop-color="#F0F0F0"/><stop offset=".383" stop-color="#DCDCDC"/><stop offset=".506" stop-color="#C1C1C1"/><stop offset=".627" stop-color="#9E9E9E"/><stop offset=".748" stop-color="#747474"/><stop offset=".868" stop-color="#414141"/><stop offset=".985" stop-color="#080808"/><stop offset="1"/></radialGradient><ellipse class="st35" cx="98" cy="107.5" rx=".5" ry=".7"/><radialGradient id="SVGID_25_" cx="112.995" cy="99.792" r=".819" fx="112.446" fy="99.783" gradientTransform="matrix(.546 .688 -.556 .778 103.126 -55.632)" gradientUnits="userSpaceOnUse"><stop offset="0" stop-color="#fff"/><stop offset=".133" stop-color="#FBFBFB"/><stop offset=".259" stop-color="#F0F0F0"/><stop offset=".383" stop-color="#DCDCDC"/><stop offset=".506" stop-color="#C1C1C1"/><stop offset=".627" stop-color="#9E9E9E"/><stop offset=".748" stop-color="#747474"/><stop offset=".868" stop-color="#414141"/><stop offset=".985" stop-color="#080808"/><stop offset="1"/></radialGradient><ellipse class="st36" cx="109.5" cy="99.9" rx=".5" ry=".7"/><radialGradient id="SVGID_26_" cx="118.99" cy="92.162" r=".819" fx="118.441" fy="92.153" gradientTransform="matrix(.546 .688 -.556 .778 100.125 -61.445)" gradientUnits="userSpaceOnUse"><stop offset="0" stop-color="#fff"/><stop offset=".133" stop-color="#FBFBFB"/><stop offset=".259" stop-color="#F0F0F0"/><stop offset=".383" stop-color="#DCDCDC"/><stop offset=".506" stop-color="#C1C1C1"/><stop offset=".627" stop-color="#9E9E9E"/><stop offset=".748" stop-color="#747474"/><stop offset=".868" stop-color="#414141"/><stop offset=".985" stop-color="#080808"/><stop offset="1"/></radialGradient><ellipse class="st37" cx="114" cy="92.2" rx=".5" ry=".7"/><radialGradient id="SVGID_27_" cx="121.089" cy="30.944" r=".819" fx="120.54" fy="30.935" gradientTransform="matrix(.546 .688 -.556 .778 66.548 -76.447)" gradientUnits="userSpaceOnUse"><stop offset="0" stop-color="#fff"/><stop offset=".133" stop-color="#FBFBFB"/><stop offset=".259" stop-color="#F0F0F0"/><stop offset=".383" stop-color="#DCDCDC"/><stop offset=".506" stop-color="#C1C1C1"/><stop offset=".627" stop-color="#9E9E9E"/><stop offset=".748" stop-color="#747474"/><stop offset=".868" stop-color="#414141"/><stop offset=".985" stop-color="#080808"/><stop offset="1"/></radialGradient><ellipse class="st38" cx="115.6" cy="31" rx=".5" ry=".7"/><radialGradient id="SVGID_28_" cx="109.67" cy="18.962" r=".819" fx="109.121" fy="18.953" gradientTransform="matrix(.546 .688 -.556 .778 57.534 -71.245)" gradientUnits="userSpaceOnUse"><stop offset="0" stop-color="#fff"/><stop offset=".133" stop-color="#FBFBFB"/><stop offset=".259" stop-color="#F0F0F0"/><stop offset=".383" stop-color="#DCDCDC"/><stop offset=".506" stop-color="#C1C1C1"/><stop offset=".627" stop-color="#9E9E9E"/><stop offset=".748" stop-color="#747474"/><stop offset=".868" stop-color="#414141"/><stop offset=".985" stop-color="#080808"/><stop offset="1"/></radialGradient><ellipse class="st39" cx="107" cy="19" rx=".5" ry=".7"/><radialGradient id="SVGID_29_" cx="68.264" cy="13.97" r="1.009" fx="67.739" fy="13.109" gradientTransform="matrix(.81 -.34 .436 .542 23.839 40.406)" gradientUnits="userSpaceOnUse"><stop offset="0" stop-color="#fff"/><stop offset=".133" stop-color="#FBFBFB"/><stop offset=".259" stop-color="#F0F0F0"/><stop offset=".383" stop-color="#DCDCDC"/><stop offset=".506" stop-color="#C1C1C1"/><stop offset=".627" stop-color="#9E9E9E"/><stop offset=".748" stop-color="#747474"/><stop offset=".868" stop-color="#414141"/><stop offset=".985" stop-color="#080808"/><stop offset="1"/></radialGradient><path class="st40" d="M85.4 24.2c.4.1.6.4.6.7-.1.3-.5.4-.9.3-.4-.1-.6-.4-.6-.7s.5-.4.9-.3z"/><radialGradient id="SVGID_30_" cx="50.147" cy="-60.121" r=".907" fx="49.675" fy="-60.896" gradientTransform="matrix(.81 -.34 .436 .542 -4.184 67.54)" gradientUnits="userSpaceOnUse"><stop offset="0" stop-color="#fff"/><stop offset=".133" stop-color="#FBFBFB"/><stop offset=".259" stop-color="#F0F0F0"/><stop offset=".383" stop-color="#DCDCDC"/><stop offset=".506" stop-color="#C1C1C1"/><stop offset=".627" stop-color="#9E9E9E"/><stop offset=".748" stop-color="#747474"/><stop offset=".868" stop-color="#414141"/><stop offset=".985" stop-color="#080808"/><stop offset="1"/></radialGradient><path class="st41" d="M10.4 17.4c.4.1.6.4.5.6-.1.3-.4.4-.8.3-.4-.1-.6-.4-.5-.6s.4-.4.8-.3z"/><radialGradient id="SVGID_31_" cx="70.337" cy="21.788" r="1.009" fx="69.812" fy="20.926" gradientTransform="matrix(.81 -.34 .436 .542 26.697 37.481)" gradientUnits="userSpaceOnUse"><stop offset="0" stop-color="#fff"/><stop offset=".133" stop-color="#FBFBFB"/><stop offset=".259" stop-color="#F0F0F0"/><stop offset=".383" stop-color="#DCDCDC"/><stop offset=".506" stop-color="#C1C1C1"/><stop offset=".627" stop-color="#9E9E9E"/><stop offset=".748" stop-color="#747474"/><stop offset=".868" stop-color="#414141"/><stop offset=".985" stop-color="#080808"/><stop offset="1"/></radialGradient><path class="st42" d="M93.4 24.8c.4.1.6.4.6.7-.1.3-.5.4-.9.3-.4-.1-.6-.4-.6-.7.1-.2.5-.4.9-.3z"/><radialGradient id="SVGID_32_" cx="71.67" cy="34.235" r="1.009" fx="71.145" fy="33.374" gradientTransform="matrix(.802 .359 -.098 .689 43.027 -20.525)" gradientUnits="userSpaceOnUse"><stop offset="0" stop-color="#fff"/><stop offset=".133" stop-color="#FBFBFB"/><stop offset=".259" stop-color="#F0F0F0"/><stop offset=".383" stop-color="#DCDCDC"/><stop offset=".506" stop-color="#C1C1C1"/><stop offset=".627" stop-color="#9E9E9E"/><stop offset=".748" stop-color="#747474"/><stop offset=".868" stop-color="#414141"/><stop offset=".985" stop-color="#080808"/><stop offset="1"/></radialGradient><path class="st43" d="M97.7 28.6c.2.4.1.8-.1.9s-.6 0-.8-.4c-.2-.4-.1-.8.1-.9.2-.1.6 0 .8.4z"/><radialGradient id="SVGID_33_" cx="58.693" cy="37.875" r=".859" fx="58.246" fy="37.142" gradientTransform="matrix(.67 .568 -.286 .635 68.976 -17.252)" gradientUnits="userSpaceOnUse"><stop offset="0" stop-color="#fff"/><stop offset=".133" stop-color="#FBFBFB"/><stop offset=".259" stop-color="#F0F0F0"/><stop offset=".383" stop-color="#DCDCDC"/><stop offset=".506" stop-color="#C1C1C1"/><stop offset=".627" stop-color="#9E9E9E"/><stop offset=".748" stop-color="#747474"/><stop offset=".868" stop-color="#414141"/><stop offset=".985" stop-color="#080808"/><stop offset="1"/></radialGradient><path class="st44" d="M98 40.1c.1.3-.1.7-.3.7s-.5-.2-.6-.5c-.1-.3.1-.7.3-.7.3-.1.5.1.6.5z"/><ellipse class="st23" cx="62" cy="96.9" rx="1.1" ry="1.2"/><radialGradient id="SVGID_34_" cx="61.543" cy="96.3" r="1.532" gradientUnits="userSpaceOnUse"><stop offset="0" stop-color="#fff"/><stop offset=".124" stop-color="#FBFBFB"/><stop offset=".25" stop-color="#EFEFEF"/><stop offset=".376" stop-color="#DBDBDB"/><stop offset=".502" stop-color="#BEBEBE"/><stop offset=".629" stop-color="#9A9A9A"/><stop offset=".756" stop-color="#6D6D6D"/><stop offset=".881" stop-color="#393939"/><stop offset="1"/></radialGradient><ellipse class="st45" cx="61.9" cy="96.8" rx="1.1" ry="1.2"/><path class="st47" d="M17.2 13.6s10.5.9 26.3 2.2c7.9.7 17.1 1.5 26.9 2.3 4.9.4 10 .9 15.2 1.3 5.2.5 10.4.9 15.7 1.5 1.3.2 2.7.6 3.8 1.6 1.1.9 1.8 2.2 2.1 3.6.3 1.3.4 2.7.3 4V34c-.1 5.2-.1 10.3-.2 15.2-.1 9.9-.2 19.1-.3 27-.2 15.8-.3 26.3-.3 26.3 0 .3-.2.5-.5.5s-.5-.2-.5-.5c0 0 .1-10.5.4-26.3.1-7.9.2-17.1.4-27 .1-4.9.1-10 .2-15.2v-3.9c0-1.3 0-2.6-.3-3.8-.3-1.2-.9-2.4-1.8-3.1-.9-.8-2.2-1.2-3.4-1.4-5.2-.6-10.5-1.1-15.6-1.5-5.2-.5-10.2-.9-15.2-1.4-9.8-.9-19-1.7-26.9-2.4-15.7-1.4-26.2-2.3-26.2-2.3-.2 0-.3-.2-.3-.3-.1-.2 0-.3.2-.3z"/><path class="st48" d="M16.7 13.8s10.5.9 26.3 2.2c7.9.7 17.1 1.5 27 2.3 4.9.4 10 .9 15.2 1.3 5.2.5 10.4.9 15.7 1.5 1.4.3 2.7.8 3.7 1.8s1.6 2.4 1.8 3.7c.3 1.3.3 2.7.2 4v3.9c-.1 5.2-.1 10.3-.2 15.3-.1 9.9-.2 19.2-.3 27.1-.2 15.8-.3 26.4-.3 26.4 0 .3-.2.5-.5.5s-.5-.2-.5-.5c0 0 .1-10.6.3-26.4.1-7.9.2-17.2.4-27.1.1-5 .1-10.1.2-15.3v-3.9c0-1.3 0-2.6-.2-3.8-.2-1.2-.7-2.4-1.6-3.3-.9-.9-2.1-1.4-3.3-1.6-5.2-.7-10.5-1.1-15.7-1.6-4.9-.3-10-.8-14.9-1.2-9.9-.9-19.1-1.7-27-2.4-15.8-1.4-26.3-2.3-26.3-2.3-.2 0-.3-.2-.3-.3 0-.2.2-.3.3-.3z"/><linearGradient id="SVGID_35_" gradientUnits="userSpaceOnUse" x1="72.5" y1="19.469" x2="85.61" y2="19.469"><stop offset="0" stop-color="#F4F5F5"/><stop offset=".273" stop-color="#F0F1F1"/><stop offset=".438" stop-color="#E4E4E4"/><stop offset=".574" stop-color="#D3D2D2"/><stop offset=".694" stop-color="#BDBCBC"/><stop offset=".804" stop-color="#A3A1A2"/><stop offset=".905" stop-color="#878585"/><stop offset="1" stop-color="#6A6A6A"/></linearGradient><path class="st49" d="M72.5 20.2l5.1.3 8-2.1h-6.1z"/><path class="st50" d="M72.4 21.4l.1-1.2 5.1.3v1.6z"/><path class="st51" d="M77.6 22.1l8.2-2.7-.2-1-8 2.1z"/><path class="st52" d="M33 16.8l4.3.3 6.8-1.9h-5.2z"/><path class="st50" d="M33 17.8v-1l4.3.3v1.3z"/><path class="st51" d="M37.3 18.4l7-2.3-.2-.9-6.8 1.9z"/><linearGradient id="SVGID_36_" gradientUnits="userSpaceOnUse" x1="21.343" y1="14.909" x2="32.989" y2="14.909"><stop offset="0" stop-color="#F4F5F5"/><stop offset=".273" stop-color="#F0F1F1"/><stop offset=".438" stop-color="#E4E4E4"/><stop offset=".574" stop-color="#D3D2D2"/><stop offset=".694" stop-color="#BDBCBC"/><stop offset=".804" stop-color="#A3A1A2"/><stop offset=".905" stop-color="#878585"/><stop offset="1" stop-color="#6A6A6A"/></linearGradient><path class="st53" d="M21.3 15.5l4.1.3 7.6-1.7h-5.8z"/><path class="st50" d="M21.3 16.5v-1l4.1.3.1 1.2z"/><path class="st51" d="M25.5 17l7.5-2.2v-.7l-7.6 1.7z"/><path class="st52" d="M60.3 19.4l3.4.1 7.3-1.8h-4.8z"/><path class="st50" d="M60.4 20.3l-.1-.9 3.4.1-.1 1z"/><path class="st51" d="M63.6 20.5l7.3-2.1.1-.7-7.3 1.8z"/><linearGradient id="SVGID_37_" gradientUnits="userSpaceOnUse" x1="67.115" y1="7.704" x2="67.652" y2="16.945"><stop offset="0" stop-color="#fff"/><stop offset=".19" stop-color="#FCFCFC"/><stop offset=".324" stop-color="#F3F3F3"/><stop offset=".44" stop-color="#E3E3E3"/><stop offset=".546" stop-color="#CDCDCD"/><stop offset=".646" stop-color="#B1B1B1"/><stop offset=".74" stop-color="#8E8E8E"/><stop offset=".831" stop-color="#656565"/><stop offset=".916" stop-color="#363636"/><stop offset=".999" stop-color="#010101"/><stop offset="1"/></linearGradient><path class="st54" d="M66.7 8.9c-.1 1.1.2 2.2.3 3.3.2 1.4.2 2.8 0 4.2 0 .2.6.1.6-.1.4-2.3.8-5.5-.7-7.5 0 0-.2 0-.2.1z"/><linearGradient id="SVGID_38_" gradientUnits="userSpaceOnUse" x1="63.318" y1="18.052" x2="65.044" y2="18.052" gradientTransform="matrix(.999 .042 -.042 .999 .303 -2.643)"><stop offset="0" stop-color="#fff"/><stop offset=".08" stop-color="#CDCDCD"/><stop offset=".168" stop-color="#9D9D9D"/><stop offset=".261" stop-color="#737373"/><stop offset=".358" stop-color="#4F4F4F"/><stop offset=".459" stop-color="#323232"/><stop offset=".567" stop-color="#1C1C1C"/><stop offset=".684" stop-color="#0C0C0C"/><stop offset=".817" stop-color="#030303"/><stop offset="1"/></linearGradient><path class="st55" d="M64.2 17.4c-.3 0-.5.3-.5.5s0 .7.2.8c.1.1.3.1.5 0 .1-.2.1-1-.2-1.3z"/><linearGradient id="SVGID_39_" gradientUnits="userSpaceOnUse" x1="66.269" y1="15.827" x2="67.577" y2="19.886" gradientTransform="matrix(.999 .042 -.042 .999 .303 -2.643)"><stop offset=".183" stop-color="#fff"/><stop offset=".266" stop-color="#BABABA"/><stop offset=".353" stop-color="#787878"/><stop offset=".433" stop-color="#444"/><stop offset=".501" stop-color="#1F1F1F"/><stop offset=".557" stop-color="#080808"/><stop offset=".591"/></linearGradient><path class="st56" d="M68.2 16.6c-.3-.2-1.1 0-2.2.3-.7.2-1.4.4-1.8.6.4.3.5 1 .2 1.4.2 0 .5-.1.7-.2 1.3-.4 2.9-.8 3.1-.9.1-.1.2-.3.2-.5 0-.4 0-.6-.2-.7z"/><linearGradient id="SVGID_40_" gradientUnits="userSpaceOnUse" x1="42.502" y1="6.367" x2="41.499" y2="14.928"><stop offset="0" stop-color="#fff"/><stop offset=".19" stop-color="#FCFCFC"/><stop offset=".324" stop-color="#F3F3F3"/><stop offset=".44" stop-color="#E3E3E3"/><stop offset=".546" stop-color="#CDCDCD"/><stop offset=".646" stop-color="#B1B1B1"/><stop offset=".74" stop-color="#8E8E8E"/><stop offset=".831" stop-color="#656565"/><stop offset=".916" stop-color="#363636"/><stop offset=".999" stop-color="#010101"/><stop offset="1"/></linearGradient><path class="st57" d="M41.9 8c-.2 1.1 0 2.2-.2 3.3-.2 1.1-.5 2.2-.7 3.3 0 .2.5.1.6-.1.4-1.9 2.1-4.8.6-6.5-.1-.2-.3-.1-.3 0z"/><linearGradient id="SVGID_41_" gradientUnits="userSpaceOnUse" x1="36.087" y1="16.759" x2="37.814" y2="16.759" gradientTransform="matrix(.999 .042 -.042 .999 .303 -2.643)"><stop offset="0" stop-color="#fff"/><stop offset=".08" stop-color="#CDCDCD"/><stop offset=".168" stop-color="#9D9D9D"/><stop offset=".261" stop-color="#737373"/><stop offset=".358" stop-color="#4F4F4F"/><stop offset=".459" stop-color="#323232"/><stop offset=".567" stop-color="#1C1C1C"/><stop offset=".684" stop-color="#0C0C0C"/><stop offset=".817" stop-color="#030303"/><stop offset="1"/></linearGradient><path class="st58" d="M37 15c-.3 0-.5.3-.5.5s0 .7.2.8c.1.1.3.1.5 0 .2-.2.2-1.1-.2-1.3z"/><linearGradient id="SVGID_42_" gradientUnits="userSpaceOnUse" x1="39.038" y1="14.534" x2="40.346" y2="18.592" gradientTransform="matrix(.999 .042 -.042 .999 .303 -2.643)"><stop offset=".183" stop-color="#fff"/><stop offset=".266" stop-color="#BABABA"/><stop offset=".353" stop-color="#787878"/><stop offset=".433" stop-color="#444"/><stop offset=".501" stop-color="#1F1F1F"/><stop offset=".557" stop-color="#080808"/><stop offset=".591"/></linearGradient><path class="st59" d="M41 14.1c-.3-.2-1.1 0-2.2.3-.7.2-1.4.4-1.8.6.4.3.5 1 .2 1.4.2 0 .5-.1.7-.2 1.3-.4 2.9-.8 3.1-.9.1-.1.2-.3.2-.5 0-.4 0-.5-.2-.7z"/><radialGradient id="SVGID_43_" cx="53.695" cy="4.717" r="17.039" fx="52.986" fy="-7.958" gradientTransform="matrix(1 0 0 .485 0 2.43)" gradientUnits="userSpaceOnUse"><stop offset="0" stop-color="#E59C36"/><stop offset=".042" stop-color="#D98D2E"/><stop offset=".092" stop-color="#D1832A"/><stop offset=".145" stop-color="#CF8029"/><stop offset=".527" stop-color="#AE5128"/><stop offset="1" stop-color="#63250E"/></radialGradient><path class="st60" d="M62.6 1.7C59.2 0 54.8-.3 50.4.1c-.1 0-3.3.5-4.8 1.1-2.7.8-5.1 2.1-6.9 3.7-.2.2-.2.3-.1.3-.6.7 0 1.8.8 2.4.4.3.8.5 1.4.5 2.6 0 5-.9 7.6-1.3 4.2-.7 8.6-.4 12.7.8 2.5.7 4.4 2.3 6.8.4 2.9-2.5-4-5.6-5.3-6.3z"/><linearGradient id="SVGID_44_" gradientUnits="userSpaceOnUse" x1="39.488" y1="5.351" x2="36.98" y2="16.492"><stop offset="0" stop-color="#fff"/><stop offset=".19" stop-color="#FCFCFC"/><stop offset=".324" stop-color="#F3F3F3"/><stop offset=".44" stop-color="#E3E3E3"/><stop offset=".546" stop-color="#CDCDCD"/><stop offset=".646" stop-color="#B1B1B1"/><stop offset=".74" stop-color="#8E8E8E"/><stop offset=".831" stop-color="#656565"/><stop offset=".916" stop-color="#363636"/><stop offset=".999" stop-color="#010101"/><stop offset="1"/></linearGradient><path class="st61" d="M40.7 6.4c-2.9 1.5-6.3 5.9-4.2 9.5.2.4.8.2.7-.1-.8-1.7-.4-3.8.3-5.4.8-1.7 2.3-2.5 3.5-3.7.2-.1-.1-.4-.3-.3z"/><linearGradient id="SVGID_45_" gradientUnits="userSpaceOnUse" x1="64.095" y1="6.52" x2="63.522" y2="19.237"><stop offset="0" stop-color="#fff"/><stop offset=".19" stop-color="#FCFCFC"/><stop offset=".324" stop-color="#F3F3F3"/><stop offset=".44" stop-color="#E3E3E3"/><stop offset=".546" stop-color="#CDCDCD"/><stop offset=".646" stop-color="#B1B1B1"/><stop offset=".74" stop-color="#8E8E8E"/><stop offset=".831" stop-color="#656565"/><stop offset=".916" stop-color="#363636"/><stop offset=".999" stop-color="#010101"/><stop offset="1"/></linearGradient><path class="st62" d="M64.5 7.8c-1.4 2.9-2.6 8-.8 10.6.1.1.3.1.6 0 .1-.1.2-.3.1-.4-.8-1.4-.8-3.4-.8-4.9 0-2 .9-3.7 1.3-5.2.1-.2-.3-.3-.4-.1z"/><path class="st63" d="M62.1 3.1S59.8.8 54 .8c-4.4 0-8.9 1.8-9.7 2 4.9-1.1 7-1.6 10-1.6 3.5 0 4.8.6 7.8 1.9z"/><path class="st23" d="M42.2 6.4C49.3 4.6 57.4 4 64.1 7.8c.3.2.8-.2.4-.4-7.3-3-14.8-4.6-22.4-1.2-.2.1-.1.2.1.2z"/><linearGradient id="SVGID_46_" gradientUnits="userSpaceOnUse" x1="26.663" y1="3.31" x2="27.864" y2="16.72"><stop offset="0" stop-color="#F4F5F5"/><stop offset=".273" stop-color="#F0F1F1"/><stop offset=".438" stop-color="#E4E4E4"/><stop offset=".574" stop-color="#D3D2D2"/><stop offset=".694" stop-color="#BDBCBC"/><stop offset=".804" stop-color="#A3A1A2"/><stop offset=".905" stop-color="#878585"/><stop offset="1" stop-color="#6A6A6A"/></linearGradient><path class="st64" d="M20.7 13.1c.3.1.6 0 .8 0 3.7-.5 7.4-.9 11.2-1.1.6 0 1.4-.2 1.4-.8-1.6-.3-3.2-.5-4.8-.4-1.5.1-2.9.5-4.3.8-1.3.3-2.5.7-3.8 1-.2 0-.6.2-.5.5z"/><radialGradient id="SVGID_47_" cx="49.734" cy="-46.958" r="1.089" fx="49.852" fy="-48.041" gradientTransform="matrix(.482 -.352 .337 .213 16.037 39.833)" gradientUnits="userSpaceOnUse"><stop offset="0" stop-color="#fff"/><stop offset=".13" stop-color="#FBFBFB"/><stop offset=".251" stop-color="#F0F0F0"/><stop offset=".325" stop-color="#EAEAEA"/><stop offset=".421" stop-color="#D9D9D9"/><stop offset=".532" stop-color="#BEBEBE"/><stop offset=".652" stop-color="#979797"/><stop offset=".781" stop-color="#666"/><stop offset=".914" stop-color="#2B2B2B"/><stop offset="1"/></radialGradient><ellipse class="st65" cx="24.3" cy="12.3" rx=".5" ry=".3"/><radialGradient id="SVGID_48_" cx="51.756" cy="-35.991" r="1.089" fx="51.874" fy="-37.074" gradientTransform="matrix(.482 -.352 .337 .213 19.177 37.307)" gradientUnits="userSpaceOnUse"><stop offset="0" stop-color="#fff"/><stop offset=".13" stop-color="#FBFBFB"/><stop offset=".251" stop-color="#F0F0F0"/><stop offset=".325" stop-color="#EAEAEA"/><stop offset=".421" stop-color="#D9D9D9"/><stop offset=".532" stop-color="#BEBEBE"/><stop offset=".652" stop-color="#979797"/><stop offset=".781" stop-color="#666"/><stop offset=".914" stop-color="#2B2B2B"/><stop offset="1"/></radialGradient><ellipse class="st66" cx="32.1" cy="11.4" rx=".5" ry=".3"/></svg>